<mxfile host="65bd71144e">
    <diagram id="HIP3nbAZw_EuaXWnEj3U" name="Page-1">
        <mxGraphModel dx="1003" dy="301" grid="1" gridSize="10" guides="1" tooltips="1" connect="1" arrows="1" fold="1" page="1" pageScale="1" pageWidth="850" pageHeight="1100" math="0" shadow="0">
            <root>
                <mxCell id="0"/>
                <mxCell id="1" parent="0"/>
                <mxCell id="7" value="http://ics2o.mths.ca" style="swimlane;whiteSpace=wrap;html=1;" parent="1" vertex="1">
                    <mxGeometry x="60" y="60" width="760" height="480" as="geometry"/>
                </mxCell>
                <mxCell id="8" value="" style="rounded=0;whiteSpace=wrap;html=1;fillColor=#e1d5e7;strokeColor=#9673a6;fontSize=9;" parent="7" vertex="1">
                    <mxGeometry y="127" width="760" height="353" as="geometry"/>
                </mxCell>
                <mxCell id="11" value="" style="whiteSpace=wrap;html=1;fillColor=#e3c800;fontColor=#000000;strokeColor=#B09500;" parent="7" vertex="1">
                    <mxGeometry y="20" width="760" height="110" as="geometry"/>
                </mxCell>
                <mxCell id="16" value="&lt;font face=&quot;Courier New&quot;&gt;&lt;b&gt;&lt;i&gt;Welcome to the stock market. The goal is to get to $1,000,000 (liquid).&lt;/i&gt;&lt;/b&gt;&lt;/font&gt;" style="text;html=1;strokeColor=none;fillColor=none;align=center;verticalAlign=middle;whiteSpace=wrap;rounded=0;fontColor=#0D0D0D;" parent="7" vertex="1">
                    <mxGeometry x="20" y="148" width="360" height="30" as="geometry"/>
                </mxCell>
                <mxCell id="22" value="Money: $ __" style="text;html=1;align=center;verticalAlign=middle;resizable=0;points=[];autosize=1;strokeColor=none;fillColor=none;" parent="7" vertex="1">
                    <mxGeometry x="20" y="178" width="90" height="30" as="geometry"/>
                </mxCell>
                <mxCell id="31" value="Stocks to buy/sell today (positive or negative number):" style="text;html=1;strokeColor=none;fillColor=none;align=center;verticalAlign=middle;whiteSpace=wrap;rounded=0;fontColor=#0D0D0D;" vertex="1" parent="7">
                    <mxGeometry x="28" y="296.5" width="302" height="30" as="geometry"/>
                </mxCell>
                <mxCell id="28" value="enter..." style="text;html=1;strokeColor=none;fillColor=none;align=center;verticalAlign=middle;whiteSpace=wrap;rounded=0;fontColor=#BDBBB9;" vertex="1" parent="7">
                    <mxGeometry x="22" y="335" width="62" height="30" as="geometry"/>
                </mxCell>
                <mxCell id="29" value="" style="endArrow=none;html=1;fontColor=#0D0D0D;jumpSize=5;fillColor=#eeeeee;strokeColor=#36393d;" edge="1" parent="7">
                    <mxGeometry width="50" height="50" relative="1" as="geometry">
                        <mxPoint x="33" y="365.5" as="sourcePoint"/>
                        <mxPoint x="276" y="365.5" as="targetPoint"/>
                    </mxGeometry>
                </mxCell>
                <mxCell id="34" value="" style="shape=image;verticalLabelPosition=bottom;labelBackgroundColor=default;verticalAlign=top;aspect=fixed;imageAspect=0;image=data:image/avif,AAAAHGZ0eXBhdmlmAAAAAGF2aWZtaWYxbWlhZgAAAOptZXRhAAAAAAAAACFoZGxyAAAAAAAAAABwaWN0AAAAAAAAAAAAAAAAAAAAAA5waXRtAAAAAAABAAAAImlsb2MAAAAAREAAAQABAAAAAAEOAAEAAAAAAAB//wAAACNpaW5mAAAAAAABAAAAFWluZmUCAAAAAAEAAGF2MDEAAAAAamlwcnAAAABLaXBjbwAAABNjb2xybmNseAABAA0ABoAAAAAMYXYxQ4EBDAAAAAAUaXNwZQAAAAAAAAJyAAABoQAAABBwaXhpAAAAAAMICAgAAAAXaXBtYQAAAAAAAAABAAEEAYIDBAAAgAdtZGF0EgAKChhmJx0DBAQ0GhAy7f8BEUABBBBBQNl80pgOrTUgBT/yYPF2dtQKE7b+NsBJO6a8Orx4p2le1KpcJfjXf1Jk70qS6Ky7rq0fq5EGZ9xjT+ZJcJr5rwfZKQ77fU2kQTn904bp+BkUInr+tCyjtq1U42hEz559dkSS9REreHxI5FRMGy3E6o+MtVyXu9UiLx2guI444xJ6uZ+MHKyomc459YZv8I1a467ZFqlwggZPISAArOpwPQvKsoQfnI/eVh8Hjjok9POwEcu8/BLDfxYN6j7ZpAbiUMGdy1axWT/ykqGp7EX4yerMcjIa0l0TBcPoumqf0Evd0f6oQ4OdxQzC/O/JDH8L9a6KH4imjhBjeosRLXzAih5bF6MUzxqSQyTyIedm+qZN3ee/h6nCdctKejVTEPNLNAA/JeAvM5gNyhduCvErxfsz9qmkhk29IEMiggkxr4Y0O1QBmYYunymBzkINKU8sIoGtjKACexRjBR4uVJKvLDz6HuWxMb0L05Rmwh3Btb2nV5waBB60GJemTRqI1dzMsuFzplRHMT/AmAMK3m9RJ7p/6c9mJU2B8f+UdxBEwiMmHVZ/Wfzw33+evJtjJbmTgmWkFRtPFNDRVwL1q24zzGRyXaUmz/zfkhdLAaaSmFR6ILi08GFupph2Cn9oVWV+7pku9dvQGIYa+3JR7hUOKY4xyx+8fDlf2Oi3l3uykkQANorfRG015GKKaG2E+5q2AUO+7wCPvkaf7mpWbDNYoBJWGABXa+WWDqZYRGibUuawH6BpaQzEGIzWZyOPOrWWAjvq3AmC/XecdaFBDJfptjKiqrMybnw2d5trDJmpQKzgxGUMpJlKrkA/HWMrEb/1wirNnGwQFvMS3Px/F9yhhEKvdCDP1d87X85X7pX3DDYiG3pdcsAlZBqf6oD1jXdlvuWka0CEnfRBYvlFq/p1HPWKkIISe/9l7dk5bKcEpsg2xkIGmZozUrTyCiVYFdvA7uZUSTkbyy0duDQNpKcQGWsrbTy+tH+/rTuWCeXSUF0Y/7oyW582Kpyo/ULo7d45tZl3WHcnEqoqrFxk0X4DM8crRm4U9Cgx7i7RbfHvvZa1C3XKK2xcmBf5NFRbzYd8ow0wS1wiwWEPND4ucfL7/ESHD/5iM9mjHuMDjqlkVGFSZt1M6ytYTaj5F98k4qeBLjZPeBnKIRwq0ai2IhlILqNMRk+GJFynmKKfGS+scg5k9pGfPCDSs2Fr4O5rHuzxkIl07E3155TxVb92OYGyt4SUO6nqh6ISWsCUyoTzXZB/2T+KdFyPM0HAb0wHB+sKAKJtUcLUaF7vE/jtJMYJbAI/Qsg5bprijiuuiQN5y6o0qo8T6fWbF2nXGUqxCrsHuP7vyKHBouoFhe9WBkGUNBEvy5QDMIhP1TmtH1KD4D6eAMJz1coxMjh2wIMSCZRgpozmZTk3ck1h6Z21Bx4ik58v+yrAc4rnCp/qz6NrZBylqxmZTyMloKGE9JQ9ACsntGzQTZrmOFOQgQXf53pNLldBQIydzDmiDf5JkXusOtNB1q2/uYiOqNQ74PmMS9HgCE5P0NbLoxzLdvYTzaSzytmyMblZTGxxjtQbP14AFJYoK62IydEXYEV0CuPMr4oHs6hX5kriR4bQoscFX4GAfoaTjoTd6Tk1qJrCAFGii0070ztymhAml02/0hC70QdRJCJVyWf4f5bGU1diNoU3zQIat74cvJFyK8Yb71AXWW/+tvSjJRco4/Dz9XUARCmRGaQaFiRO9GBXHGU40OPxe4gOm5f21VW+NIznqre4lpt9Y2WWgz/0JhvIs7OKlN9mp52zCD7stBReJNPqXA+LE2BY9Bsb8L3Ut44Kk1B16r9qeEWT8UOBhAr5LyR/YLYqvPQNg1egEl6oW0wM4SFVEkakRVI4v8QpOs71hZfKWY8YPBXS6zveULL0MCHgmYVzGqUFiL08kB8FdYFfHmfKwBeL2AEayJaluUlOynpVoiuRF/r6U3hz0jYkwt+4dvUpvd7mcWzXheepUb5UNa4aD/zVy/dX3gNCukUywcyyWjnFmFQE+YU2lvZ8wKOUlTLIkiCcDvl8KbubicGVVsNZwx9wM1s2K7RWJNVJNtobIAx0HWd/flTgkafIHUA8fTrwOteNba5/I/p0Fl2xsFAG646rl13J526ViqgmwYAvwRsM4mwy5RuDcADG59c9n4x1c/FD7azvnYyFX4+kolw0i68SV1AIIQvgikOhBxwJNjgWIyKn1fKy2ecUk2AJKF3BkMhNEMbSpZ5w+pn8lpXGFIM6j8L16HO1zCw1n0D/Bb3XzX7dmo2reb7DLhWBRJOXcKJEpadtRVjdFWsN8Y9U1RTRm7exC9JgkumESqLr/8hIGC8I/NmtAr/3aXPoRChk6MqNrV+wdERdv8lTmtBrzYCMGAo3vd0rbMnlwAsayYYiesO7utlLpbp6zxjYfWAGF9NY2Npu8q3gj7Nu8eaYxuS8vaVyYVoCFvyAPO7MOGRv2PuM8gisFYHh6ezalLv+LJwSpr77gJNjMwomzVpDxHC4iCtttOuwNwD6b8u+VEPKNory77kf3kfY2Nd8qtGdp3vDO9VuRyis48CqJnlYgTQrnfw5on7hSws3zLSAGKooRSC0waaGCfzlqWCH+cWWRoUCza2ReLRHgwfqQ1+XssofwJJZvRGJWBPXoGe17+8oTrExexnnrZU2NDymja93bP3G+vCsvvM07S85tRQrIPnoPPWd1Kf5QfBX0Nue4olwUVEWRg+X1LBSu7yjvJpIwurZ+Z6iKxg6uh3JrhA0MSoVcv1PoKuJch/v4cUDpPeexuZYqjp6FhPlvuZFz99zquoyZVQLbkRqbkQw5Zt+0yvelFshfMPcaEhSsXhOFNnG2wjmUCQDp9DRictuazzGyTRTImRd7okpbdVkSYEpYQYWUIhClZXb7kbr9BiQ52E8LLparY1StP1rREpkeV2PLzmbZefI7fas+8qFzeVcwmnOh77bpM72hQWY249cERUlBtMKne2wefxIwJXDvuLamP/7PnmucX0PXuFRTiCbXTL9L98uMD7MkGNRMfdooPS/cAXCH86pI20EyXRANhS1NCdotIhFTLNv+tAL8xMYfOvMKXlSPxqBEYOEjSa1mhXpBwP4Z72liBp4srQ1YH37yAZezLTRG1B81dYg6JiQ1GCAKm4l9ojrPUNvbEg4Tv8SzhSQm9otR2VkWk33OwEDDD+77g+ro4q7sJz6P3DFAoBC5YQc7zQ+mxsUA7rRwbIjemFIhwhANb/lf0fNw0+LGL2Bn+CHl51CsScLK8VlYO2SG2ljJkIySkvkxq3wm8xYgLqZLm1xeRcdzX9lgQf4fxLqq4x4MY3PRhQukCugWL1dWWB03LI2PfZ1NqmjnVhTavf0Ntl23PONZHfgVB+RnP317bQKNatltK+1Rq/VrpV7GewIp5NPzf0CM4GrAUzTvzV7IgUnT0YCAQW7rFSAWvKeqFvURiLh59fSeoLNclzyQ20WqT81aryRFZIF088mR7p4G0hbCTHTpM3TO3FeCBXKEYHaAJlpsujwfLgzrVZ4zthjhNjJRGJje9Q3thOQ6bGnzNb0vLoKXgjlznYkgCewzlKiHxBVh82w9MnOHtINxs6TeZ31aZS14X9Qe9xeATDORQJpheQdD8e9cMKZszQsobf4xa/Uc+yEi95Xg/8F84QpN3cfqsTs1E68IwZHH0cfAZDHmWKzpnqNavh307jG4sBkwYWfzFXiH9rI70hbJRazrPyq7dQ5gRID6kVkEvpDy5HmQRSVUuJ9Pi+x9fxcoMzp6+MyDPsMkqwrmsNg+/8UEWtPU7Z18kfVtvBWKszZKWHNUGxRl5FkDEHfhSxh3Jza0ldKrRB9NkGI9ylF0AR6AybXdYFDi5nbz9J6QXmZZmoSZsNs6Ir1cK+GlswY57FH3QErC6bODvaAmKFt5PHmEBt+yDkYwS4Wsftb/86DXNAqoEmjwudevYZVx3VUr2FU9SEptkDhizorYq26jo3q886QcI1DRwVF0U2R8ABZBIa0cLqPj9T6tsfzEExLvK3yDIVVd2bGCB/T1UdltjcjiZJE+NrJLe96vto2g+edT/ru4onuOyMVYQGYQW+QaTgQMnHRA+HvuPkj3xCYOZkMv05C4bjdYDxD8Kpq7AenobhPCOFnraHeSNTQUyiV9velO9XY3BhNaHuLj5Nzlwb5VAAkSb1TuLDPz4nlDDgWGuMJrbIu/4ex1OVkguIotpYtrSUQkjIiU4XZKJrVFxDsffipMetD5RzSikNiSqh5xwlID96iFurnvSM1gajVXuYwD+SK6naIvvNo28sFsPBi+zOMk/fXTb+wCCN59bZIDGwVJqeQffJdXnOC8c5dSeSk2WZ89E3SXR988v6kAYVtAU+mtewq/u6emMzkFAxys/maKPBmLdwy3/9GYPjOIi+yE61w+n+8XBoOCsqUwixQgHLj/Gp0VTWzZIFcGufGXBb8Lo6fNdu6UrvnIQKbhmhvJWsEtFrp+JY9R3msfV5wNkrczOSv89QnwqEaNHkTH8yXCyhi5Rp0BhERaV8Qd71bhyvq2hPitHrjOQoEtNOdZ68xU2kpN8hmYVCpvDEY/bfx3JQa1CFr+ljuqdIvJkJbg8sAEmA8B9GfZym6hFF2YJlSIqy9xEKlLeXyqijQbYTHAREFNYCHva2ICcK1v5EiksEaxcLpW5X82s5NC2O1u404IIfeYuKb3nbgNrXL9pSfss8zYj+ZHzF3rhSF901Cn8CCLoPS32iJESnndMRVwnq3r1wkDHQ3QQTRFDXsXGjhaBTOg6tPe6uNH6PoWw5tzudUJ8KrsF9HsjOn1/g0IMV9fDqJSPZOS23o6x3FqYqMbvx4EVeIS38YULn/8DwS+bgBq86NNoOYY9cmqUO2eTko0flpHRTLH8KYtp0N+XddevgRsJUyiJnPtfBaBJcKhWmBz9HiVUB869jRHtHg9G4IbE+beHJQI7ChNLRpzCT3jNIMrpPLnxXKOjnHGz/EIcWNEn9hK6M+a6RhkRrv4RsXehfpI90JzZfhQ7IbXF9AHHwjHi2FeXx1fYLNmO2WPtnfgXNx87mQPMmFfVGIBVHMwB+cmcAAU4FZj4GLCjIRX2+1HfS8KfXMpG2ayZ66Ev1mCB8ontf/NVXIFn5/OG0WaMAMuiwhu+gOu2T/D3apxHAx4f/Bed306aYD5ANrbON61qBrtexnQ9L3Yf/FGXSTAjMTt0IRUq71ka7vNo+RBNik29ozftDXzdeMqSwBXgrMHo3PCOdD3IutLrSfuE5uplDwk7QFEo5BUiTq60uJnQaU2U6sVETvS79uPhhdMgMWfqnZhZRogcv5BqPodMRBDEOsTnWE3P8KP9qin2thzblTpgW0dXwqtAaU4nBToJKhMPsEu7u2ItDaap0P8w4jMtNfsvh+nJ4Jrtit29cEeT0myl5ANpd6Iq/EK03wicQbxRuVLOIwuRRgm4ulCAyF5EglX+i8oGwGon98Yfu48p/Q/DlViSW04+tgYXzc1FHwIbkbIZaP8mSxa/wAmMzybQtjCEb7ZLOk3UKZAUYIlLKKuFH+qrsmEz/iguKcTPq/pLAIyHcCrAgEkEX7mTb3ZL6H5Rb+4FSCn7Rcyum/3esRf2ts6Zpm9Gkla8CWWDts5q9iJNcMEBoEUzB31PMrKo19RpFA7tw6/cCKmw4Z6Un5DImNzym3BoqG3hRuE9C3UzvtlStfOLDArSwHFAoqWAP1vWUBntnCK0uoqijmpR+ijWfQ4JlguwJDo1pbRNPz/hK33w/PExYGsTzLROYJEDrOO5GOtlk68Ub7HfBRydi1G++OYZnqu4W2WBeyVwbmoyb0skiwmns0/rfihIXdyQg/9rW6l/z3KchKP3IGnVnY+6wKszsor9VwPdLG4fdViKI+oCYB+ig3kRaS+Tdq/BZ6409QOyaL1jzrY/d14YWKjc2OEQT0kuAIK9qAsUtICOj9p5WymBiJdYI02uemStQZGDiH1Op8LP3GSzP5g8m8HiSh6mFJyVLlB9hvFNM1FK9RdThzGdZRHaUeZQq0FMlp5O5St7mwIu0bSC3wZG6tX28rKFA7VI8MHEu5aL/WH/sV/DcMJ6eOPded7cz9eRvdk+Khvs7bkrXHsZtl65EtEsPOdiawqG92AIJzysFXO87oWFkn+PVqiSNFhyZn6Rd7FBReIltYMCju1uSUq43TMb+b3i8vg1s9oOOou8b3eJlFnFNhq+un4PeVmPsacYb7zvWVdDjpWnwpUvKJ6mU9rodrCWqiKWEJ1n4M9+IDFKwK6iRPl/0F+xxX2fQS+ZzxvhaY2na4CdCkFZ0fsf9GwQcaUnYS71g7//qGvjC/4KD3/PDWy9hU4p6meXYmfjcaEZ9K2ZWeioxejxx2LPP8Hgi8PvSbHTcFuWaZsFxVdDrRTpTB3a7G82pk1RH/dyFcVI6/aQJVtKGH7Il3qIg9E9/vzD/bP4IsGdcaV8ccSkXcGALPTfHp01jAr3EE7sXM22CBxMtOKP9xn7b0Zj/usvHoWyTLn+YNoZLRQWQ3+rf+fqD4x4nJuoo9OUQlRwI5K7xNsi4KnKiZTbWXnS+LarQlHe6VKlG57WtR09s4y2hhMX6SwkP+joE35x5NWKBPKr5mMZ3m0C2/8F/3wv4btaKU0B/SbMgPhgASoaRqt9GuOi7kaDVM6KAwUOH4ecqfXfis+3NbPRkk+MX/whDu1GEDC4dSaLqsMVwNd8Lvrevz/QFaeoeJPWu7lCfTKXdlKujluGZJABwgc2hpFqlkglZotJH6uv5+Jshi99Wgquqd2T/A7xMat0pryLcFHnByggA0pYW94C/HTacfcp6Vb9hOinJicW345sJMnsSBOdlCG0+K+ga4Q5ls4RoEaODnEhlMogTbQ/Mxhw/DjtiB11COmEM3Yggrfs3joPH/+BNyp/Bgn8B3dtPYUbBmRQ960hvw7Kuw5zXRYwJQ5kHHG6wCpAJiQ3gFOPSoDdnBCCPxWlCAuxu9Q1to6yEOX7rA7BcLQMgPwOUadZzaMcCW72Xx5CM9Ms5LJGiGDhEHxEvr+lpjZaUr0E4TpYygA/S6DGdzh+Juh6URtwS09sAASde2BX6Q8jz8EFihE4Yrpyf25TgncbsqLxqxuUAug9l+QNADK+8ZSH3/mDDpYnHCZVJQ28/L9ypXLJPyT2GWlaczr6RObtuscBY9KAs1blE9BrZIvM3dufr9XzBoODoQimeVqkwuir3gacfHlCfm8VqtVRiwucYkC/O8D8Kt4FQTM7ojP5I7D3kKQGYgDIs9MW0fEf5FvlnxmthnLf1wOQHZokoYufqsf+ZMX31/mGc1I+NJaWjUQCikiGaN9ZS/67Ya3PdQbVAR429d6eAx7RDzEhL3Di4G1Mt3NFQNJsNHI0sd/cfjUJlqxCRrgS4zD+27mttC8rRVuQihmlglLOyaWU7ecrBv3fIU5QX/hdCpSwLiB56dzK8C15e1t9rCNiB1e8MhdKmTrWwVzpkJ37T+10teOSl2K+Jw8hCmLDwzISia3ZrmTY2U7Vy9JRoBO4w3vfl+JhN0VNkcd9fw7ezIe1cyn57S5JXTGOm+m2j3RG4oLeuLzT2t+EAdHzOXhLTHnCndv7LJ8fVikeTce/0xk5SB5TUI2BoKDXTBJcCB/A/dAt8FK0hZ1cJgzQw2wofPrEWc6VzCi0FEcKZoAnBA5anD2jyXspWwFsdfHyZlu9LLyeORApRqmf5EjVhnbJEVkZTG9MThQ4u4lgui7DNSBkcBGYxS8JqEBy4wXz1aQ+fv20E/p1+l+WUTRHDqSFGNYeNDbJ1t7/aru3ySLx0c6lf7Rg/Q1qTBcdMQlwn9mUpK+z5zNeh3FyrI7ZezQh7LbgYSZcLlP5X/lLZwB7mZXoEoBJ6Hg2sPLhi7DTfnvvMAXj5XNwik3PwhGnzYr1wWgByzlDvblAtNspAYDvnuhuFjXbdg5Fk6wNUwtK8azHRjwD5V44lYEZEf5YtS+33i9/rJdF+RWNg99pob+zvtBfI+o5kz6SbyFP/mPDVdqtipnEHa4KEg2FC6sjkPMEbhMbKjdt2NjuOs76KJQF4zOaSRMR9Mle/w+xR8yBqtoQlvqCzT5u5RuPagKNiKx7zxjJcBY99hvuC7bVJb2j9t3EMl/hA5/sv1ddioDTaAv/uzZjxzDVUBa44tUK1dt91YGGCdv1ou+17hpmxvgGgKT4PYuSssxnnoxOmHnD1s63gHLbVDfSrzTiyXSY4927+f1cbwEi1nfqFfMI5+qsa/tJtudc8XHUgrsXa6NgZdxZ97bI/XMKS8Vq2KrnGf5zcGeAWCFkFJ1olLiZ41nYMBzqKB0ZPCz16wmAPH6lghYoa9xE00Nobj5SAbGN0FHOylAhlqlDGjZbdrnSwFGxnmcLY6w56607i4mE/Ii4IR6vhIVMx/XZnp1caFGQmIDQ8VpvFF4TUUAyMadQHPt897jsf2PdijHMty09+yUnQOOP2hmocbbJCmmZWgkFI7PtDpLa7KkvqJ3ok3W556Pw2H240m2UoEAdyochl8Nf6BgQpWSnkidGzkIfSuaSDmJTwS5wZbWeQqRPqhim2qcTHiGLr+ByrBqKtoDE/2rApdOKMFC5rtZXY7r9ruxmGpguVdjCqi2pwwTnlEbEFz2jm8DUWkpXkzpLjJlAI+kL4UcveTreAhL5Br/tRe9dH+zokFbZC5GitgQMliUAeFNUX8z8TTCskj4aq7S4pKyuVMD+eqAWepNRZH+pmCy8hNiDc1UzcnWDxtj0UfeVRQF9m01UWZ3qgANuhmg0jMPiRDvZD6UM+O/tmZp6LCKn1sRHF7YOJZ7nan8WC60Od8uynS1Xs7fh6zshQ2XnSwTlmMk4a0qJvaGn8ZV2lgLh9VcWCFt5k/PrnODhKMaWJJs+/YW6hySt+4uRRCjdDfhgkvjeiLM+veLOBGvID6+lu903zuH4L51kZt+CyBJAscJPwAQ9vsJXULwYrCU/x0A7Jhdh9hGCN/dmmp7oGQVnQtOzGUWPynbcGKXH/iMXW5QeSDM4HnRK+rmzCDTyJbie1uJXDQBJzJR7cHTfBIqhQjJmcBkdiP0L2UXOhcM5sHOgSrlCTbCy4ywTa4deiR2fE6HlBAobxjXKcSPZts1uj95FWPZQg7QcmxscZN6Z/0b9cUylO/2MdJ3QKfdh9dosYNfMzN5tea1KBC/glm5L67M3Mab1l78fBH8AWPs1pRAxTJK/TUpJpmigjKxshoE3521+jg+bfYHdZn+0JgY0xZ029BXlXH5GDImR0dpTL686qFNloeK+wRBObVLplbGufwrT5a4xUGCZcECHEfivRQumbYrxlpsgriu0wyo1BjqafFpNlDRMLIfdxGhrdABPgMDrfwKbD88tZiTlZRwebGmUR0y9p0t3c+/72sSmATkRsGNwmlB+3jj7uFBzECWRNg9oofjmVUYNsrFmmDWWMw0CY4l9XDSpsSrNA96QpM5AnG66BQ/dW2TILoOI1zs+PL5L+ff2alx0k+3UN+3ykpCuxHaFWX3m18xm8q0XvaQLLumAePh0qOj0l1gpRqaJpgD6RpdtjQqI55iJV+VIvfTAOMYW+spFkf3YyeWOF6sqDE2wBHrtCnrMQklWKXyugScbVNkp+tBbMpimRfH1NlBc/7qLKMYGBq6Izjduj52VXC9zMT2cTNJBs9nai5EvczZ/7gkhaKdL7nYRNVzIeJw08RuYtW8wVy0ANtsIhdd+aYYzHe0Cfflo4OZn0xcXbujzwUY0F0/e2Zsyk2K3wNJygCuQrqNiwwszcATZNp9Y+CcMa34WquoeMnhkua1795DSfo+wp5A8TAKfVEqWiK3OifDnlaMaGo3W2HQ0Qf2B+aLfQsImBHkyLHAkdjBniVJEUReIKHxI2ZzhBOyoqnAkt0pe1s5qSzwgtQO5jpSXqOOyUX8ywJdJvZVS8spt3AlRQlXIO+LUdxwyDLE2ECcqU/GiFyZbdaEiMK5xyR5GZn02b5FE/YvdCEAKdCO9O3Fs3+YcR00wQK35yJKRA4NC11fC5VGUgf4mCOf0eHOnflDmWZS/Bk38xdI4Zl1+pTzKYIK7VwKIk2xbsBBQhNCHhEMOfLZH8iSJ6WcEqpuFlQ/vgsykA6N2snztJiKSjV5lTZNcdkD7kbfvBpweFBEcgB+70BYzboWIXbzZWI06fml7+7LRwzkKY7O162qdrWCyERpa4JPvKCie3wFbsH7boaur+aXomK6sStEianrG87OxDtM3++OWr5FOLiKTyvPX7nfBuhotdYI1zYPDqOVSEnqOeJxQqZwrTK/znd//J6afaw14SpjZf2r2Jvoc/0Ukoj0Ddc/XGsNB/jCFZHZzLn/oadXo1IsZE55/mCWLKoCbbGPODsPHqj3T/L2UfjRXZRKPK5FOfoITNvQbxXdT94MEBBy3Z5ceT4LaQ/TbNlPdWFhA9uvHCc4d5KeMbalQFBwVE5YgiM35+qP2f65bM0x0rlZFWOsL8rz2js66ztdS1OeGjDy94cBa8xRy3NCAI2ovaH7TKRNh5Vlo5QhUWhz3MsZeA49ye3YohgWe6S3yVX/B8ia/pXT2e2ZXC3fPSuafxhW1259+0QUzLudS4syZaH7S7ev2QIFxM416VkJAQFYdsJFR+TRn07QYa6Ys9mtLeefYjYeXXoeSLFyom9iCb9BQUy+qmll7E1bM2yoTs4k1GOPyslAEzQbeA+/A6kOp2NYsQC1F4EueNgGMpxxeOEcuAtn/BOhS08I0NZbejCOa9Oueo2MQlorAN2j6CE5e/1BgqSp/PQosJPLsSZl1lfmwG40GDGLgIUthioV6cS1GKF588MaOien8wtt8UceB6s4o7vCldRSL8aaVpbRrWOdfQ4/RR12ep7g/d603yWKYtT67G+9xGmBjLVtIgKeDyWhBZD1wcmh27V5MXIFXQDYnDYlKetvLsgKsIQ8gjaxiizwHN8p+6t0GyBytSMZnxfculmhBFibJQnVJm2ZGKXc8rWsG9MR5NbJE+R576Iotk6XDmOTLFgQwe2JPulQ0/3x1mYPh1VHdv3hhpqfOOCCsDcK9CiCjLgIO+Al9xMcq3173RPRZclrDlWVj6Z4yr8QeySwseAOyzrx/vqNThCDLiQhXjx9fSQkohYBtM1pD5ksVV67hPX5u6HMzbgJ7bS1A+FdOQklxZ0c980cK/Z+JqVBfNasxsptqgFQES/lVRIN6ZfBiS+HmvnPkZhJr+/wvPwjoJah6gYpxmDRt0xi2wROZBNxu8HXtJ7Ho60WD65i+U9twFh0SRsucW9DYT/5JE6OgBmU7f4nN1gDvED74CLn9bkmKYZubPVshcMRNUR+MKCMHpB4h8vqMoioYql/3ZnC+lBvOYNEwRk0+ELpzC3czqud8oSLWHzZb7BC87rHZu9qJrdyu4qhNhpvjEhD3m21AG6q75neSCct2O4rqsWL/n71KxzZevs6cQejtw8rPVVXgiB+PIiPCrO0OZ8vdNeLVjY1Rvdftss4tZjWzw3gQlTibvD/rRujF+s51ZKZR/PtK3SE8VrH/yd5euYgrlBmW6Mxsi6B27egJfwft/ZefVsKmpEqSpxqTf0XjALyDsSGSoLGwzrFfe8zwat7BcNCJOCETGYjs4qDMJor/6PBk3vXe4qoxzPm+YkXH63pTfrhvG2718q77tm5DfSfvh0w+Q14FcezhoqnExwXvfvr0yUafnEblHzalS3gBiVDD7D/T9hgKu0iZot31dc6Ot8yHEjv2xRfVbUyMFUZLONgo/dha57iE+pdvYr8R0sI79dyYkcqUO/3Gg2cZO48E1kCJ17sjEqJb66zNfyuwqCkAOA2Tf6cj/j1dggpnBFvyO3HCcK43OlfHJ6t+BO0fQrYAAn1tv8qLFVEMKbnH9eDNBCbkTDhtie9C8mqLcOHetCTEjeklKjbbl9wCN0upLKl+o9LAUdLKWtzfzjxUPTOeq1B7bmxe0YPWre+nwf/MQzN13n7DclOU2DWwxv3EI/8OulEKRtRUgSoxAOwsey8WMZoPamuvigSMVpDrWkpiIveohlYHlWKiyKdyPeO1GGwAS81wD0SAW5j7O20wIwN2XkY2NL1Z7N5CXlsaa9C0ESnpj4vJi9tEV/CcrTupYSiZDorslkxPhvDoZcKwNI+UFK9fMU8mPKWgsixXfuC2YJ4eHnPsOPpnbcXhyGh38bIVoFSuw5a9/6Gida2+eSlZOXzkEQbzqNvYLyKGRnC+2l0hz5/WHLwtiGZGYIu1wFytcJs7lMnaMvf5VfEP18bzVzHcQ+sq0DdkQ4B5hA0/OxkpxElhXbymg9hJywaq9CavA5MpKtdUKEU3mOIq7plQs6f0rHndayYOThi+VZ/+vJxKOsu9lMLw6nzkzSPR/bEw2dA+AsWExmoAaLTYTJxQtJhFAGGdJpdsbSSRd/3Tt3iK+7S9md1ZokxSyuFZWq/0WtZirg97PKJQeBo0fFqF1CXxkuq0RSTzYqh8PFBxTF3sDczTZOJWExv4PGXQKSQqA6W99NYLYjX7aD7tt3GcjO7uNnBFYZ3fpyvSb1Ywr+VsHiCzi0k7ZsU8yTqwA4HDil60QVQOObF4cx1/m/ulZcx1ulKHcmTXc7YZ1hfSd1liCPzoDPguTlSqLq1EJANJePSJrZzL4f7OB+d5fnpj4/NQ8+FwKRD+LTYg1/AkkYHQttAdabixkPeC3pippIzahDdLVE+7Eb1yBRCrNbHxegc+s86FmedlloFg9rTKz/sTZu6jhUCKuYMbq922gGFpHrmULpe/flIn229NU07Fkg5nANHTgrACWQqLwhDNTK9axrgGG4pGD4kC0M76wJh2TPLz353ADbh2DPDlWKybUEI13zeitFCwdGduDn3WESKntc7wEKiojwB4AT7dCh7AIX//Xcp0kpYU11bsBD8lsSh2rvY9BOmUKbqYUk/w/sa5UzcGWOc4XVIxiroBN7ob9gh2x5ln/b/MEelvdXsvtUOJXaQt1q2+cJYKATLHVMNlt0PAKgRWwq/+ep3NjNiec2kJE8dnfLw+fmS+5ZJjEfww6RHHk3nx3IXojp/Fq5+KAuQS3MtCYFg691MZQyG4tSRhMhCTKocU9U7zltWGORm+YBhV1hO4xWML2IDmilNcy1JIPaRBJcKCPb5FYpB40Scke80JFBdK7JlwzVejz6KJc9WIxpn/IOx1p5Alm0Lah5jC/LVC3p2MzPc1Ou6n3pfUqXwXZoS0ZKlgEGIGSmhen0TC9jGt0MDnMjmBcxVy2L5d0su5ehvE+6kslIE4y6hUZXxzzX2y7a8/S38OV8A/PBnFN4/FqLNaMKo9Ao+3gx4V8ZC+OJaGTeFfRI/YDVA4kC8j4mdt7gcMy0FXJT2mwpWcTIEF2hfArr9Luk2D+YJ7x3J/2JXDIHl6k2SS2jUQxcJiW3CyOHTlSeUcd06eqfZuL+lrUVnSI3+2l+YroEe1YZl5gGTz0MXywYc1Xyq9iPRC1KuvN8qIIK+wYkCXDy/n379+jZtPRFJGDp8VTm55X5ozW8pjB6jpFsMR0QCGn8wY4YRHlFqxvgO61hCw9aIPMWX9b4F3D570hweO+EKEJvDSc7FFr+tUDVVD0QFlV8cGKw9kFXdW5Lm2aQ2ZlTFz+doGE8XwhFlITFjeYrLiflViDms68MSVZBbumu6AtjPyBa3hygKJEM/jRAgDqT2hPXHrJBZpVjEhccS/AJGNk8WIjODarGQxfRHcn2Q/rEMSFThrZf6UR+rea7F72mAjQ/zGRs8ej2h83WNwUwQGG4sIWoHvYHd5pPeWvLDI1vi3mBDAMsWB3/1iYkFn72ejEykeuK/jyon/FL9ck6tOczqZyYcBR2nFD+GGLkJzXpsycNsY3/aJxcFHq2mUSSldzZcDv1q/wUa0CEd6wngEP64BgkWVf/3wNlfOWfrZqqb6AwMQVgXCThIIrezNPm5+6Ud0Ttg7OOrmlbl8OfzaE8mQVaWzbHDhxcOQOQfdWDMPbEMkGTtLvYRFKy/SA8GC6Ek5qmNwqB6ho5hNmAfgcqeWSMsiVVobOqSGSGYbMG2eyfFJXNnczOo1WzkbZzp2hM5t1GQhUQNBSvdwlJW9l8oNO++hCJwTX9F1BWWQT7d2FYl5x/ALRTIPKEHxRIPrg0sGj9z91fdGGfqRR85pCkZxBm/87xFya3Qi8DqgSwh3t4L848pXIwbPSE3ndRJgMTny22T02iFHTi2WIFSwuF+hwoul2KrUhN7diAtIk3uK6zlUxGeDGx47Jp4B+9X+IHmsH5xkxlS60FfeN0y/00P5MrSNqUEwK8LpoTrmzLXOSHs/C+7euiE4reu2d5nFhuQOpzlf0R3ZMOqjKI/DxZP0kJYJskD8nx4+0rnVuztbixxtezgyCffmvAp/0T8gBsypjfkI+nw5K1tBipJW0oW3gFE7DaSxMhgvw9avqUGSbG8aLE3Z3R5CYvSQrfxk4fe1aHXDMzDKU36vF+36xZI4McNiRuSp/sz1t12RfjuCbq8+IyGpeo4qtqnEPOMGx8oC6D/hHW5D0Dls+wGErXMFyXMZJLIJz1aM7P9gIoSWzEtFlO/oLvy+AMmQ6BQUT1T5POV9qtP8Gi00XLCaL2IMFm/yv426ojv6X6YrVddDxdAdZ622dzJT+i8ayaScX/Ry1IHCNpytoyRaajD1G/ocp+BOrvUJAt4nXfGaxankSf8xXm8RpzrIqQAMNQZT0DKWiIo7mFhvnoSvfbxaYMuKLZv5+NQkbOo6OGYhOF6KmG+oOp4LkGMOcYk857T75H//UWxA5GmLyXDTC4Bfa/uIOvlb0HYUynAhOkPe3Kf3bTX58dSUBPcgN1kxT1KwdTOVSVUBRPCJwoTSCKzJrJep+5WFjaA3eDkp2u3jqMNrXYoJj/jMwI4S+QPayN+ECqy9kiu5kS6HFv4jAfoC846s2rhWmd61NqGzXbHtYq9AuVNfBDXwuLybneZrbOEWxsqH6REyATjLH1y7dQrNqyNaXasfkIdOe2nm5KNaaAe8l+R2PZl4bFjAHM62nKLJ4AKmv8P0vZE3i7XySh0JseqISGSccNlaxwWpgqg6Chu0aWbY7B1tVSOMeeCH/lBXlrdyfbZVKd3SAoB55bTXh/HjsjFk80UR4i6nH8pQjlEWJ6A+Sykw672cTjMhPmwj+ghwX+gjpbePSASjIhK5pNbseLC/bDB2BGcOl6xm6vvb4AxXEyZfQL4qnSnV1jxbkcQGICZYVxojo/LqKngRSya3YQyvUhPGyrEt/TAlD9q2pYKO3v2x2Lh3h6WWiqsKkF462xyB5WhZHuWnylxIaoBmRCAeQTkK/xzsHsMkNb6TcKYSDImmtOmJVY9eUYGhTZNjMXRp4uMe3bLdVh0MGJgeSS4/PwspoKzC0WAayv03HD+w9FSJYAagAcYsVgFUQUWw27tgwDd7xqNIdOo+fPcP9qFjMbYYhRSZV20WECeIYmoOMG1jiu/OHkeFz7iMQPvjKjXUQzo7zpkYsbUiafU2uZVXuZCi6O0XbvlZKoBYKLGvpAOZYzauO+FXxTUU4PX2dwZ3eDhaU3cXRBKBQzM97xEFJgZExyX81jOGXznSH6+2f7HBAiogA572Y16PiJyXyh4d/WVwoHM4H6txA9VaG6XFpNhQGksLs79igm3rI5o2RS4h/ZBCJeOi/OnM+g/t2jUZexP5gKTq99ciJRDSLFtApKfNvBr3v1ufVmOHq/6Gr2uuVelqgsTcDuZgu6quXx/yIYTfUvgqpr9JLlESssqejTuYeh0BNmu84N5QsGcxvyzrJ3aolFsmE/nxHB+o17va1xIliTZsPQ4EBwRbK1IX4hkoVYz0uW06wR/D//PrtfFSi921R8pD27IvG88GL78PiFYaI0s82K8Y3kEi9mX+yaCveWgVzTGX5FIZ/m3s+BssPoyow+q1WHcZ519sS5Gy/FVIPPEwLVSltcPH7qisQZ0EaZX9Q1y8cz42IjI7w2jymOInweej56tQZ/aVyTlUfHYc3Zl/U2hBuh3dbScsvAiYPIq8t7dQg9IOCdN9rSFWV91MNAueEvbzO/mzPLcmK5K/4hsj3hQI0nvFAgXKqzZ7xVGb+MGCNXB0OVwcVMBQ1CHBY4Kdew+whEjxKEtC10abk6GStZCfs7fgfvxe0Rk1RUSP5NIvypaRpY0GFUhN+F1Y8CE+BmWd7glSMD2bic4t9tLNHXxqONmymmf1nDzZd6MviPp3bNYCG1UjCXH62hN39OLnFkuBLUpUF9a95YUB6pFiciIskHo/hJ+kVT0VQuYMpJp8/GSlQUpc5/nPr2azidUtLLUedneukJmUG/j9xt8vsGHVSh3HeYrSoz8C6MK85SrlDcSkznoByuYj5yJeINZCL02DwlDXpo0+PRpb0oz52z9HPfrQWPvv5vlUQTAcj3lgcUiRE3uYHNmOVcbLktjPN2WHbzVVzkSG6d/i7k5/ZCNGxKRLfOSNVke0EQGc2u0amHF4Ut2pgRv2359Ob1ghpFuEAirL8+fbkdsrWduZW+thO0a0pAXZT6bWqZOBVL8GR0Yh+h5AQfw4WjnF0ya2MRCjRtvOy3Zuk9fLJM1pf37tOZvQZkwiivAUBc7h038ExlYoNFnPVC9wZMHYPwxBgVN9RJszGiRqfNjB4Zi5FrlQl2TyrQmsZAiSZFxvKMqrk+coiL7Pgs1Oo4ORbfe+qQuetZlKcPp9R9JK0kdoy42l6hp5nGGzkh+/SqGU4i64AulB95Oqi8oHHRwMxOI7COSYWiI3bFeqpW3HqnHJzNFfXR+JI12edfYk7iLZk2uzbQsFhUWT3ADUiYRDxlFZmP0upJX0YaWSGvUzj4r1cWZ+QqN3gepOXIDUaf8k6sJKN/V1HSIEn+FKOJETYhvVD7aQjr2I4By0zirAZXim59yAoU7FIh6uu30cTFNZSF1YhIbYkC/NerGR+k+TQPaNAa1D5z1JwC4wId23D89JK1t5MgXQCm9rWo5NIElFRRlIJl06dC+kKdtPUPjMYjegqbwqS3o1PT4Qe52v6oDeI8uKRg0Hva+/bgQRuPvIzObgYpru+YLgDthRIi/rFAbSE3gDEjah9IO43b2hcldripy3XPPGgdedM8+naf5MnCt4fC2fKLUaMn+BnE0d5dKRkOkjhSsZf9g+FZoHFNkAJd1D4v5oxyVNM+cabd042ejTJYmfBMbh7ORFoBLJ6sx+lpXaqBMpiLqm65b0azoZn0asEuIW29+CUeGmRU4W9YsjUzNm0m+xeYcq1Vie8zRIQeOwLKLQ+H2t2ICNKG4gcAY6BZ6KDcyCTGGEJWcx9JWVzi/i8IVIWP00P8LDPdRJZId1tDjoc4gyX6nR9YwDlV+7cqDRJtmw2Nt0nnNlkpOfQMMWlx9x3xZYkQfzUA/BLhwRgOmzDEUZ4JuxXVayATUxxBIzZ9PkeZLzJj9mKCpNMcAqqZTKE/1pNLJEMl01Or0fGB9DszYfGMfUXeWaRrOkbybMCfI9wdvGrDRFxUiXhE06QIAUZ2o0sE6BrBUu+SE7ALPkOfBEuqwdg9oVgdOfpcztooUn/PiR7e9P+/q8cNCtNoU0khz0Nm2PFkXMFgBy3XitCWX1a2sC2za+pKXTelhIBu7fA3yjut6xjFp18GN8FJRkLa2NZ2SW2SITRcxILGUlZ22vla+jNY2HODhxQB0GVA+S7T9qyGpFJSxtSkbbbCZGD9OfcWj2gPPTVSKXWpLaqgUhzD5ICy0IBO1/eLf3bJJZGkJv/Yta1qS+ZcDFTw2N0RbNyUT+qjo2kHwJTOMqkh3cscFtBh5ePxWmj7LbCuGuSKoyiN3HUgoldp+GM1+ToAvFAydyTWGDjLo3R+7fKFunFDgpa9Ks0ruq3pCV7umJ1ib5+I8eLXbHbtam0D20cclWy/BMOOAT22eqR+SAt9jv/d7NrYFfLZ1/5qS/8uxe0BqcXlgkXFHHOitXn5F6alPyZzpQ97IF7XS7dpH2/TsZbnkbq2u+nRUrqUqHrIOQHetgw/ZS2n6QqiJLRo6A8dMn/wTipbTu+wX6if8ePcTpYYUJhWOe7cWKGsJmeDSyp+Pwi1LHVE4qi5Q4X763Uri0717BC/v5lde33Ukgcv45JhWlhzr5RSP2YDq0xSFblxk+gBsvA2TXmYKnwiXzBp0r5sUmJyADotXUvZEREdXszsWi/3/99K8taZGJZdeFhlXtMusqy8NCKnhpOE1W23Jbb6IDPr6ttKMY+2hvEbUA6Z8UU6/6Rzobht4Ce0wRog5KtZP00femVQQooY2nlBz8XOy1hvCrN205ct8UMrcEZCP4R6qh5cQY4jRsnkXbNoXIrSk1md+/Y1JDljzz1B7oibQ1AfvfpFlCVVjEI52sqsd8XR4MS5M9blpASy1la8t39zQoP58czqECPd0Mtp6CIoFbtIDQUavxjNqriKYxhoVM1mBAjcg+C3ennSB93IVgftEK1f4rAHOjoWE/WrqywExGJ/gxJJ+CSXxNuZXtCFycSlYjiltXZvZNpXDrLSqmCJi67DeupaA69dU88NUAT4kdtq7HnaWS+Bc+7mjVxJZCxz9b1WAMzvjsOU/Zh0glFlxzmwiWVKcro4FhAQfFnadMTLK+P/cd4P82HkrcpeH2KFjADq9rcv9NocGtZB0ymuH/DvhxAaq/Dyyar4sInDJ/U6CZ7i7CJOskC2LMaiAt25nFz9+mbtLwUh1wLUmHBMu6id3/cN4tseOh1jrTlDVU9obmbXlEA/jGd2vSEvE1Og2QDmByAxLxwOLb6d//HFHaI1aBi7nPNRm86dcpzsEPIyOPNrDYVUd/OdgskNKmhrMUx54eGg1TPlFZqvWxQ5mXsdskNW7OoOOcpP/bzWtr3RVHoYjGn6MwAYVgH77igs/A1r8vrG7UAFZCqNKy1JBPKzBoo3eaK7DK6lmsDSToYOOqnl+hQtk1ED253XKllO3a1g7FY9/8ApXp30VWfSDI7qMYe1+aiMIANGqFHeBMvOsJYSe9xOLq7mScHawFA2T9YjXKLFbTkkdgljz+SnFhofvx6d0jVhSh+yYpgDvQr/6NzTrrm7UJATIhSKtsqbhZSq3TZGk/oQi4+KCTbkhU/MgBonFcEjMNYhqse3vW7vIqkH6HuO2mpuwUQnSORP0FutrCP1Mq0gNpgEaEont8NdAc3MbHVTM49r2ZyxgPohDUH/6pWVpfGgWPTyOM7OYyAFuHzNxpWVIDSJF4FP1H9gBuAxi1CbbK9052gy/0EZMsDRVYhkatumKFxuW9cnEhUwLcOFPHBKBBevadqjB7LlFuvazJw6adtTcTp6qHijbbty4Kg8CO5X91CUkZODEBYaS5M95v88g1jYPGcRHYYyYmY93ehfBrSjG9iiuBXTKBYQorxuT2P+27yIHuNKk/oIR2bga0BOWasuVaC1B5W5uFF5S44p9u1YBchpKKrMlUZsyLloiQpNXEMiktpo54gS3G5mmjVS6QqiJSk0zy8hzDiippLa21F2sminEtlKbq+GfJ146D3c5oDeb1iiAQN6vmr0ot0j4beVDT6ZKzS3JjckJfxN00klZXHAB8hk/W02kA5hXmCvkxHOKzgsTXNdpvRFccNKNeFOE7w0gmRGf3mK5HxJro8fcSgZeelllQawWZ2+1Y0pbI/bcoDrU13KAnuhO/VSAzZ/ggdDgN5uvqXVVfdfWpSE6XKekswQab+3Xrdm3ASVa3UScoA+MTcuanlhHRHRai4o3pnfWr74RETm9E/F/WxPYDrsbWc8A8Bcs4iMSQa2uK65a7SwbEjphcSRLsdYvPJfA2K9g1sk9OU+rPSZ9YltldERPg3tVzE8ENvUUmfjA1Wxz3nFXHj1K16kg4zdc8Je3NNw3crEIzOgdZfx3/9QzgsbTSN1W4zs59DwMukwd1tq7RLO+Inn7h1xUGL0ec9AtHBkFMJ9lq1Nb9oKr+zFnlZQINtvt+po5NZl3HW3Dv/Axy5FMXgNx2tVASy6c6dXALeikXgpcZmJxfHRguuoSSsblkz8VKHgexTSilNCXArW90E4MHe723KtCcYNHKfCHPbV0MC3BSmLxYghUkyJuxinmjaaMIrh+NDvfaX9uNUkDlvgIWcpiBnaS8YSYvRxRb5i4nNW+APIFnHqiY4Rn/A/F7h07CL1AZIQVqDx03ITG1T9DbQTVcmwV8sWJkdWN5BrOhAkDHSkPagg54TFxjh7kLBgYYxOAGRD6Wxvj8+S5PmVRb+0ZA9UgAUmiZ9F3qgP3We59VGHFw6eB7/xNLPVZA4ITHsFNr9NdsyzrTQ3CsKZDDRboOyt72/mbWP9PRj29OZg4iemjYkoodPx0ucwe+8p4LcZN9g/OIc1dUXRPGFgCqDOoHdig/nyxBpD+pmcwrd/FVdcRk10+dxArhbFALNIax6ZgHFKvaYgAHTQAroh3k9tkpe3MVcc8WaBhBhCFWv7ujRChcpkJuqi4JdxgE7sh/Mi22nKhB00mKudyCgfJ3vWJGrf6CYrueP3352HiCDAuhNK7sx3/7WgKF8zHutMA5LMa3QwFVNN7+IVK7bPrEd6fmh/AeahFKVxSvDR9gDk+ZCT9HGH0bZccXWOfffIRNDgZKLsYZ+rxb3t/TNmu7NwIK2pX72a6lGxDQPXGLZ5XovlxLiWbTYoTYzS9PU1+I8GAPCIFgApUKPy9BvKtoKdV8OmlivGYcv3168pS5vi4CUvkTSDlyRHBe7L74jLHGY6kRzZlrlZreqzAiGuYm7EQt3LnoKEYrQ8HNd1Zr5ckOZ6fRUcKwjG/qZQNFrztWs5MLR/X3tFaeya9JE7r6jfKqCgz/6jMfxjiivYYllYy6/u19p7yuVjhft2rZTsj4Qe5On23uN4YLx0Orqz6PJXAJTriq3lyFtjRfafPS5fxb/2xpnW0Yy9V95J1pxXJH2tfCVM6qqYZfSOm6dQcr2jLDa12bNmzQLfx5h7FxkfhiPuXzRmFg1j3oC2h2xlxXvlPYtEyD6gYOq/cPZpdRs/Mwv36RVfOAazoV5oiaEiVP8CruSP7w6oezco4+qrWp+HCP+SEt5ash1Tzn06VobX2qjNIjfgwy6QCZU3gCCulD2UAl7Zjj00ck8lw1m2Y6DB4BIs6W4S0ek6dgsdVwCS+vU0vJ22ssH54VlZh18faEO9E1AtsYgsNUHtk3EJKry1HKl+ETy/GiqATSCQNtJKS+j+8+XIIOURgPuxTESgY74feDvAuyBBybv5DXZYCdQXwsGWyF+PtMXz0nJLy6DRP8xPfozEQ/KnLFtxSiMvqAX95M/nD5oN6KZ0BEK4keMWX0nPaNPpksrb7lHIjFH4Lh2LApxpQfemhy9dwmIa+i1iCcel85ZYOpW1XC7yuU5YhNL+YYEaGo0ooirUGfdzhGEc07jfEdStg6GeD0RPoS7PXbwWt5PAls1OJEfBI5zGUuzWiR9uOv1JYoKcZYG1z3SdOh3eeZzMd+rvbEu/7yHNJzIiqT2EQSiawcfw6ntyi5WpwQ8YyDgJu9rLrZDNCPxMdwSWpG261MZe6IM0kpAhC1ih6u/HLv/8Buo8wRyGn77HsjdJRhqalA2bnxHfII1bPxIdk7Xv+LbW8jwiVM56aOTL/jRBC6n326YC8z453LD4qX5x+iOWEMFEPvTwHApSGF48T9B19+wZQ1uffAOEa9BMjgnVKpsrPdyuTxTc1VTYTtrZ1bXvqm8RVBBFMi5jeRQUDH0Op7WToOHvV+9jw1sdQ+tdf+QY0ktArVtNXC2nSTBwOE3w8Xs+/E5wux+gjCHHoMTC/NSOx3CfPNRpGvSywYkPULpoHLWHRtfHka3AWBKHmxDgdUs5s/0fz/1AIpXRsUsaj4XilNgRlD9HxMBtkp6kQ5mBx5b7c2MmmLuT0Pf8v2T2cg2h4pUszcWsA+/sk3wnuVcG543Gv8ouUClecyBkH0foivvGF3ij5FrS2xEYGobuUb8DAxb+/vEqq8NsAG8qOa7K2Dec3Upqs5il5jWFw4TjnKVRvoLEfGl1MZhFICzHeWRFfEqR5AUZeQ2lvzvofoh/XVuQvbMEuxsIlHAnbMeUq/3bTxnwUtHPN97bEGwF0Fx/wntXZ218COfVsnl0+C7sXwBK3mjVpcBIlp35JZxw+BQ9IrFV1IarlXyG4NrvLlPs6mqkrKb5Sfs2M/ieCPsssmF40QILXr2DHXcqXfiatIKfZV+6jAse4C6KheDPrQOb6D+o9hU9cTccYGDR4XCl2UaNodTTq63GyUUoWkLSX+S6gnv95dVP9vs+Xv9EDSIeekzM49Hm1bWOuSBGIQivZXjB2IdFgGBfJX5nZfUQERAjyv9SeSebv5CxOq/TwNvOx6VDEBgA7kWcDClTQNe4ccoHlY+5DjoKZgm9gGffMIQTPpytaceTZOLPebdSrMdkCKPbu9Zie0d51TULEfXUsZdmx92yO4XL0PN3muH9pmsqHw6sObHV3hHWKmL7rlrLe4WpgkCexzfJM2/n83BAzRl+3Q9zjI+eD4tGf6GOobQ3D+vrcs43iCYQmGHrpn23+zQTK4OUtjXgGVsJyf4cMIpysTGaXy8ZqTihP2WDdgCcR/8wF8dAB56qXIBadJ3H8rDKailJfNOE4UPSiWS2ZqVanfmHNJyxuovaFu6y/DVTQBxk0XUF0Z+q+1pJrrQYUdj4OWrsTxIQfMsbKIvgJoB2O36F2PMlic09aT/+f6rpXRpzx7rV6PIqK/ASiAqzUBwBIQS8iIlzXRr9s2wuLcw+xnSmVGehPbTsDhXW/tnOY1B+oEaQpafNV4UCZ2umDnr4qgs+BoJgkScwEy+tfxaWx1HZaX06fLV2gY09wcxVz5j0lZk3jwQl56WVdcnNhTOhrxXpQj66D+OMLUw1KrBSMakBSNhkFobWajruad2cVcqNK1nuGmUuEAeXHCGYxMDSWMEKl15CbA2+oVl02vdyIOoM2Ax2f9FAaR4kyuEbA7e5dCqx7m+57zIdtbwr3Dw97dXC2DWst56GrNMnhJZDFJyaaUfovEk8So1GMdUx31A63TEL5Jl0gVVjdnuPKCO1gXK0h9UJObsQldfVfErJOFiPYOd/XpxGftVGptxvdXONk9Yu9tnjEKIJop7D6MWHN9iHbf+0gQ4or3T4XEZ7m28cMdHVehJpHqAiVsxNts3u2B0QUV+P0T86FDUKx6CjMVTGL1v7cpNloLR0EEAkozolBshAFrOkHhmERMPzzDNcwPeJq8X1zjjwuPAVHwRZOcCjcBK6ENvGKg+Qw2xQUTSflMNTAWr9ASpRCG5dDhWgoZKdopAkYszIMAk3tAO1+lD1kLJ9p2eSsPkEnQmuuUE0u7ZD9Oe53Ao/EWMXqI/ivSy07fyjbz7uQHLzryDJayoh3nS3qmRNAHqLkFet0zMuffQyJT+H+hH6pirweSB26lY/E1b1sNplI62bbNxW+WIfJtLmh9xdx4bPykrVrF2BtRtC+HjihCWSsRKxH40CS6hxs2xUEOHIMsiQxCqQGZKzumtJCta1bo/jdOmtxHqLzXXy09w6Z2dq2RU8uJvE/0M0cIiSncDVQ78+OXXT1A6O8iq91PNxR+x12J8JUfrbF8sJzIA/QKIZr+Ns+7D1anmZfVOWa5zQnPbAo1buYFvQg6HVG3M5ktTFBuoCJ0kMNHZHrnDJmKm5cdZzZmHcBUJqt+Z/WwpBoogd3Dwr7hkZcZq8/im0NOSIe6EHE1aeSgIHkcH54bt+vH2j/jYAw6bE8pj2H0Q0I2Gh8ZhfcOOcfzKpvz5mQec4oWUZvG44bcO30lcCogS+yOC2SY4nl7PxRKs91ayfNFZoNmo9CzUUh9XfhTgckcIjdhk4xAk6vUxfoC226FI+Hv7/7QbauKfHmqk9o87k2AcAbZjYszbL8n2roaCussvhCQAIVRezUKDSu4uBx5sf6Icsxd6RbdR3Ejy/o1jy5xddA6rWbKbHuS0N110INH2NHqkA4PYKOQwHDsdpEa7KbclmYAEiafKt3uruChNaMcGqRigw916zCrBLr9xQC/M6tDWda6XxNm8nAjg9hFWMFWdoDwF6OiV4Tnwsotd/G5zYcidKTec0vKj7kP3m5n8PTpOjGKSXZ8r4iri0isKjNQq2/BahEYK989Yz91bTC9m5ogyyYC1myAL4cY7wu9NUHqvg1m0BZPnwubPZDx4tbOdTu4OKsnQNOdR+De59MP2J1/nx2ipLXREiLoxrnP9DirbYuVTt8hRlVLHAvNYvh4R1z+AIegINWWojwNlWdjWJLOujKk1S7PpPAx53QZ6xdw359RvU/mMOor3exCkCzC26VGcGDk5nwoqZ6KqYZVOFjAkGQT1F3LRib4wutzG8AEdIqp1b/MYU4ObIrZCY9cf598aBH8YAoJxGUvLl8Rn64Il4V4RXEACX6HbWY16xceUD284nX5/2vJ9fnSvjIWl1Xh3R9Shc1b0VXVoqBNUqbsEV93Zeustv0pVlbrMbtwmk4rF1lKSnjm/0iT+c3b2Sj672gxqCgdildXXzIahROICqRWIB/O08G/KoYxyM1b7wun98+cefozFEYeEjnBggCNAkBqrAGoxCWmRXdHm6vAWYDGK7qwpaiWg0cnP4BPqakIGnYwg5mmbTlIK9rDDy4DuP/GNvvrloRUTZSwH/VHOhHtWNYSev2K2gOaoZOkZheoyzJ52CmcyHKzw5yDWjARMAtNJN41oTLyLBIzckExmj6OnyRXtf8sG2TicdQWyIc2vcDJAuBigLRH+ywGn4oG/er5nO9S8IU1CV4HJksODaQjxdrYUv/HMVwxjemsbAEDdPLKZ2EivP39B6S1cZNr+6xbdvZG1UPif1zcE6ecpjUS+yMiSK/dG5HHhOpLpDuHH1QLA0KfdLSpKHa9tczlSjqw2WaYbQBZVOUdvltQ/67kKz1yFy7jELQZE90m/rgFGVGVldX5gUlJe44a6xjqMN3pfg4tDSc4eXjvCnBcwCoMknrp1Y2yjfUbIRcEPuphoV3DgHDOwPk0qbBPlhVij1abiCWY5YL1Ewg9bjIi4g+6/Pnysd/fv6W1zX1J4yqPwnBaDAFyy2XEaLTalzjB9vd1cjeihW8XZLzZV8It3v4MNrTzCukf/fNoT3GpCOHN8tYQlHRWql+PA/CdN7/is/xRTXPqFQyXbz8X3gjMbC73LgjS4P9G+5H6kXDK48wlu/g9yPbxk7wj4dgQ64ZRragaz6RCfVqhUAyTY7XPgYOhlqLeS1j+sMSiqbuY1Bta2OCvTxwOhOGBy02rPrCsNl+yGCCDrQIZca+x481j1BbrrohiDf8QtPRDGeL1BOOX9LsV6xUctb1hXU8z1bpHmC78bObcIoY6tMBLW6rJ+Pj2GwRHxZ/am5tiLL7cP60ssm8+m2WSn5Ewp5WQvStqF84QTKzvXBe2/akzhnwKOO6AQzpsHnUe93ctGtWG+32xNSERrnWnd3lWdnP28833tOTUEEqp7xX67RnbpyUgSTJtFTL+I+FuUyQur03ijIv0FVH8KRZAHEZ1LPerbiFX2TF5ofu2OkyEe8BX155+0bwoUOokrZ0vZUbD+n/zpPZMtRmOaa+EEmVS/omb0zeg5KXg6WVeJiPPPb8ITmE5oE37FW/XQRWVv4xWeubQox1Z04OeBtbkqGaWNcprYyl8XuaYFF2KW9BotqLnF6fhwWRESbNgGELMB3fN9boE7cWNY4yq/znig8BvjnFdSBGLKtJAUxzfufjg5LpW/IWwZTaFJIDzJHWWq7pokof+tGQgUY6lAfdeGw0jtYaNU9zzie4KXXwAzad1rqmePnGzAQ9qtZFepmU1hiBJ8vP7WpyxX3i6bhQhijeljKALBFEYpdRC+JJf0gxZUydWqi6zNhA+J9UaNivk+PMTG9ScUeQibyYL3zv/unHPu8E61ccDFuGmPfmTde1+IOxhRLBF9zr6jO7TvpC2B0wMGN8QSZ+TFlyG1Mz5O8y2eYRzRGsrQBdHptqPoP8pz6pNcdbQ3jceAJNdvLhDnnzIsIG32sRQ4oo1PH7Jxt+FXY42AwCTwBhZpzGzuGXevpPIhIcyHg3wh/bVWN+jGB8kFLYPGVIEg1Yz63ny382doOHhtrOxpQF7RDICsAxoHYYbGsJ76qJEEqxAT9KiA4gRa0s81AvJZlC28CgmiXpzDxJ2zFRyV2jrqWCm5Nr1Ucuf+aGrXGffmF9fRCdfnhzKjy+m5PY+gbhkmvIgZWooDF0w/FBnReLVuOWbGjeD3j6WzLNv4GsmKqb4c4ZhHlnZFQ4VKJH8vbK0fejKKBKvCI1EynrI/XOqERIfHJb/Sj2TE70RRHS5NrIOrC9b+MlFuAqKmX5oDG37ZCRXSV1KD+i3Su/jJDpYNTrR42wdyyVjPfzmKu8uggp1WAxUs0fuEGt4hDrzYQGEPnD/ZA5skG99w/Ouzwxs+MNZovdoLyxgo9Ork1aUdWxkOweGzUpIRw73IOhazJKu3Nq8uhMYGCK8bXcWUOI++IlMO6UKUA0HAfdnlqCFtw9G3T+nTFuphaYDCRGYryQOfeLNWFgw1q09Bj9fg+ptCYOp8bgbNCxfOKXE4KIGOqyTtGSrXK6u1w82B7r5YTnM845zNjVZonAJJX/ENGwJckEKqkIeYp3my4k090e//f03/0BzAkZAJInlvFkDNJYlGs2I65vK/05IZo8Ia9ygRGsBRGoQt6HSKryG4j7vXU9632UhyDHCu4kMiIaKBwx/WCgSq81JM3YHsYvp5DUGmI5bGvE3oAffizjSiNdABIIVxwnUUXC7odVEcSTzImT7UL3az3H+tgpppY+DDhD4EvRBWNuddG9URatFUI6cDVF3aLveFiCYDA403gEeZ9YakB7KVmBFVLF7lX8UgZCw0onmkSifXdecwD0hQKibcsEaL0SmFVSsmG9ySjou50SOeX1BK6bFWTabm9qiIOoGlYj86nFmRQjFysmbaeUlv1EmnVS3wwPMdGiOvYF53cuXYGP57NPeIk3DDNySod1+z2BWQR4kgN1FM+7rk0ly7z/d1EG9lUGqjvfMdyZzPlIv1nFIWmToBTmhuLZ5beF93ec0WLVQddMPeUYYUAvBEb7akQ+BtvoBgBjDrk/z6xYCVgbzFz/bJMl47rrK2ArI0U+JCi5vKVaWNpaEDnPMQ2l1d0GUEBZxuvTV8Khk/9q238UXRcCfJ1/29UnszFwRGquwHNgpOzkhGEEYJLJ3uMok6jDRkdIi4BKJsYiAGuYm7G4O4rcmb2kVRkPFKWlYj1NnkrjpGSgo48xV4P3sHPvfLb1tN/7n8cVj7zGbn8vgoRpEI7gbVfQbrobmTHDGsE1Md/7uNFfC+mpM2Mt+gVFxs61O198913JdDKUArPfHmVIBDukqvKuwsBokYvBPJuqdfmZ0tK/gVlgBcQiTs8SQigxyDeRPJZIjV5ZIQQIFSguGZjWH5pVp+iCv2hMnZen31Z/XeJQdrPBeEOrqirRfqY+wQ8quBqiWeXbEwmVXLdNUiK7QJuGGFXV4S4K8oKY78G+suriI6YcYBAdo2A1Iz3PD5pIK2xK3Q+wf5xSFQr1nYv8PlRjakpUNAVSPVTWrfsAUp7DfrWIYDJGC9kTMTc301a8sO9LBeKRs2GRL0T08ke54UxVgEw10RwI1ZhJxrkBC0rBra8cVMmsdJHm4x1jj1kuNZhV3eSokbmSa5vIjMv/3HQ6KcPi1TQl3zCsqjBzctqTul8niz3DZkzdPJxGOF17TD5rVBabHVZ5UDmB/U71QxJy9c3+BKBBZQB+tiJt7Zhqn09so6RS7iL+sEfCzE/cHyATsp34c7D6HjYVJSa9MwRzELtxMw+NKgB8ap7dW4+rW8ME/QUqUASc+B4bXO+6cscYM7KVwCU5GtUZUf9qKZ08+I+OA3PJGd+cHRLcKNQSkXfxso/EgharmP6UN+iPv/M0Bl7nljNS2DttwaFNmfeBE9U3DEgCoADLuyBUQwoonV64SHt3cTRmOc41IIjBAlV4cBwnl6fnHA9LaMimr7rtSViHf94ld2OuNRqtMDbuqSAJAKDnUXARJf2645ogl6/6Y6AYmsi+3c//sQLRF+bWpkkNxQEGitL4GDZhzJYu63ma6YXIBegUBpQAWnKuXMr3Tise39qtbziKFenOdxlNG9Ht5+TYrXKYPqwJSLOrrYJtg1oxCn/BLLB9dlSKrXr8Ra9cvifGyYpzbh4X4Mi5jOUUzWX6dySYEVy6Gyn0c4BGM89yQt2MGyVD+KycKM+wGEo83Va5cyxW97R/JzyiQhPDMWSFKigAdXPvdqtiJ7IdqiztGeZVhHDdRQPKbDbkAWH21j57KQUtmq+YtQkgjffkomQ/NaJdxpKbJc/AkWnyhtRD/LUjWC1DX8wNQVJFfcwn0GgqdIeCHPCGRP7Bx4zI2qf8Z0PjlVdaV7uZcZ7Va4Pmy+xf+AsfRmjOyscj7Hp9XF5k0PFZnsstMh84xwsL9Z7aXNDl7JphkbhjHXCgYPF8NBKp7qw5LG82lCUqBw4cac1fr7QUq12SoEUqmd1MGS+JMnMIAkDHGSaDbqPN+C05ggzY0y0H6TAIlsRaakah0SF826EQAkl2IASnSehdd+5EvyPyB9OxJeWPcR0TLuj0ArkEzqvnnq57HfwUVwY+kfUoArVHfL7DIG5ieWp7SujQJS/jSSassljPAkSCRNTlC3c5nHC0Y+YbYixO2MdeMk6YpjVaIVLbHazb2+TQmIL6b/pJJVv2BajV8JaFZzZLFW+C5xh445tLwcCZIpKRg7duDw7Dn2OnGLWzQhJn0AbkHBagS4uoG4evuO+9jEMboF/tITRfdqAawo2sUnXUvf+A6d3HqTmQO3fUsXz08lwzTDELhyewrlYrYNlmxOETHt34gQkfevNogA88htZ2hZlhg882IFLe8f3c/ErpPMIN/iqlqJ1aQnrirx9o4najh0xgCOV25RiPcJxRjuDpPqqt76oGHIbacMmJ1l4NyEMXOBlHmL5FZv/kRhe+pSgTDlxuhsvupV+ldvVYdtNccbtFQzxrKTEDOI6Jq3ICkjIu0MBsOteuTwrayhI+8NcenbXL31e0cvTpGLEmZEAt8SxRSIKU4Yi5Ff40GxaoGPHc6sceXNl4A/9jlelb42wLe32EahZ6dvE3DJzbCx5ZXtEHVo5ZJhxf8pdo4ZaXSltaGlPZZRldUJMUwKm4chmQT29Y55Ns0wCTyzu8E8SZDfQmDStN6r/evZ+GWxmJ/tVhSMGeAeDp6HdhfGAdShML6eSQRCoUBW5HmW8TtbBWnp+bpuklxa/VF+ZPWIdWFfzJ90KnRzzBKFj7TL3XBAK1Pg6JT9LvP+DPkGEptdPwRIjmJmdnwMuhYXSCPb7/VvWcVGKsYNh7l5NEN7pPTG+qFRwCNKljWJ9f6weNTwyaaKuSDcx6i1buOt+RP5+jmqS+EL4TWSTTv+upFBU9vzZD+XSapyh8PTVtCDVbDdIt+VrLiRN/SeAFciY7DxEqLjmr7qvPWKZPJkQ/jSIVIfwyBCZa6ufv6B5SeNUkgDS2fBw2uZO24GOQmDpMURUx9v6q1qWQU1Et4JUNczX1XJ/E71jvH/5ckf08CzrJbIQmReopkgI876P01IN6G57WFNkqYjY/wd3bv/QFJx3rhHXeEdqEuU0ulLkqQcD3swLrkWrzHYLD7BU41gH/NQ9Jj08E/0h12j8R2b25aDbZRgObMCqqC7rNsIKg4CdjKRavYmcW9E2EwoFrunvYxjmOtxTjlbpnEI50Yg0lZ2Tq/NQU55iDySYLCmkAlKtKxccgJd8OsYirkqt1I4S9zeZgwz1B7VP5AcBDRiQRyHLr+P+DnWSuMdgr7ttzmZCuc5xAuIUN6SAQzdHzsnKn2PdApfg/BOQHhQqUmwaawZPucPllsmUY9ykIzMJYx8qXBmDyNB5jBvBdEQyS66Dlc2ZXi6wqgTOJc8WAVp+67DK4j7Ctt0aHb6Vewl7sixxe9CVrteNsMJLbVRuiosMT7dew42obUAC1mlEZf+cNpKoQwBR6JKXe0igZq7G0v8rFEJTwZPawzCFUT14p5MgrkUeTGHqLkJjOj0SGItew65qizQgE/UTnLglEBG6sTPBSE/M6bTibJeETUxcK2SXzTAVf6uihn6Qbyr5CVyPmHb/+yuf2QJL1c4VL+xIusXQsdNn3RcUovIP0t14f9CjKPTDn91/D4Xjl/i8k69QLDXC0lCQZzBR+qALQm3d0bGnYnKvqW7NxJKqBTZOIQeyUBR8q3yAfPMZT+ZQsEYVQ9ZFnmePe5voK21O20TAzQ+FMZf5gI3BORgQaDoA+2hVJrh/Bult2dwveVJJtFTzmkuup9aGfhMqxliYRmGBpEPbfI70GYiN+LKS29Dtb7vORME6vd+MKHrO/gsc6sDfeAtHEU6QnB3bk2bNVwMoaxGHyhWLuVZcg3ge7uPrWfSLGU2inrFiQsjsB5vwKiIucialGMAtYmJMUz98yV/Ou0b7jBKd6CJDEEn8X0bNXHtNg4pe/ZvOFolYa07EbYXZZ3j3Cxh7FZnMpPLFu2Y43jtKv+nz2Ku0yWO7NMX0g3lqT+Si94mRtqG+NpRvvqYjn1eJnUqq/jJr2B37h8jMg2bmDj+XkH8J9Ye71qsem3CWSOtfSwZoz2fuHXK0cMUNYU6sTKGiy7FJhMlen2xhxMZ1DPANvrwkWDv48TSqMzuMKWB7385Tm2sswhNKRqrmbDehCJQXMHoAdMriOul8BXiXbgx6zYQoRK5AAflDuQm/jQ1pvCBJvCC/FCMA+xqDciraZhir5jQdGFQmfOQWuTu5yuaTEkjaUxb581HvlL9l+loHFSYTiz+5zSZKLqw+QOF1T+y4Ngi6Yrcq3DmfqDULSxb73zpfFNw+Wudu94Jm9KZohaPLag5j0B2Ig1ptaLmKf25gzEsbRcxBb/52lW9xFRxKwBpb4btkCCi5sMbFs6/PDIUAYzBW0LQyws9uTTp06I4a+XJm7PuTiGphmPRtwsILoI2+IHvgBVKApS9TkiJ5tbpOtft27R2P2i0JgIWoZfmdJJ6pZLIoja0XyS7Hf8QSf+AC1vkqm80HPG5ppalN5vhsiwBiaCNwi6fIP/Ptxo4fAq3dUbAynMYNvvwdJk4KNq5CjN09d5K5KHhJGWwnraKdBuzZh5GzbEqujtWSYUOWIz7QxXgtfTfpGgL6hIOeUOvyWAZP5Bq4alNs/exkM30L9O15IzBWtZ+6uFnFW6+vAXjXZWK0W1oBO8dFOvIvaZbpzkfMVNxD+AY6ZJH9sSb6fUiM6uA5dE4MjD5mrsrW8Jnnd7boQIinHdM6r6Qedu7Er4eojUfWV0Z3atPAkED76l1BX+DTYDkPmNo1pJQ/eCaojMOjKYvGGJSbGbzlmQPu1SzuspJupyefgzkjRUxR4B71E/2pQ63lUAHcCq9/jUYif7CqiVBZqknLJCoyFeYjv6ro5DglQ4R0FL7AZ24OFypVabcW1Ib7R4MlF0lYRtY6OcXW3CddH6m0BM4phg9CmqiOyJLcQFe8iXQydqEynlv9JEeLX/RbRyzbP2xxb1O6MByfrVbde4psm/LanSWDsL+jRfy+3Tpi1S+y0g0Wfld/00keq/Hj3vCgeQXkv1jshiw9/pnMuirhvyECt0jFqbrBvRjI7bU/jJBKu+FHrJdpqMWa3pHU7r0yUjMMY2WFibh/6MHvPZ9/JaE7kBD6+mHTLk0CdEJbt+AD63uISlnRivyCW153YfpFj0tRvpf5+nIO6qgwY1Rx8oTw2hPEtTx2PqZzjN+XMtvh2Yyd9FDZR4i3+b2oHrSDUjeuB50L72c5fzOydFIW6ryDR3MdJGY6MM5L0RovcRQQYflwWLOEga3wFRnk77thkr2hfHv+l8+INgoiLPDBj7JbV9kw+7c9Dau25ycxSo8ad/FwGsOn36PSaieoxm0yH6j9YPXFeU+b81zxhs89Wdq7XSezzLIRYeRKt23ys1AbsKFnbX6zWATNr9lICjc2Egz+ICd9Jzfwe8nrKh+93Y3jLCmpwDIYsLRNiHSEtDig8ODnUN0Sd4zMPBdIzPYkUG7j16dSfAIxkWfzG7SN3uOWnX90Qz9y1T75jZPeu4AEG7sjswp0ym110GAhvHbNE2sTf2hnaIHnL7bOTz9CapX4+eadJelncRjG7TT8QWj22Db8wYEL8SuIMwIsY4bKLOf5ySMe4Kc2a8leKaxraIsALXddMOVXI91uPnsu2M1THrNgDbSZC5fPH2fShXIyYUwQ0ukixCv2l8VXpLnACdYycQoGSXN0ZjGRVgAViiOndaE80LsKA/3l4HbnAtGDTwms8Lh6NAraOpZw/YsCK6UhxzNqO4ZCD3Aypl0MFYJSWNw9Sv6kkI7HHj2CUBttj+HWZF3BcRBB+2XHydh+oiqk13a7K2n/tmijHmHr9fv0WOWuIWsSD12Jl/8DYu+WRlhs2lJqfQKHZMLdY8yBc85K8+w467qg27SsG5icu7wH/Nrvg4kcX3nw8dxyBtEjVotr1jSEb2M2Taj2ST+NfeDH8uu2IiaxRLfDpSjf3aF+3J7ow5g7RTwgNSTAbC0LvO+x1GXUVbJAFX3gWfGk6JX4irHSlLGtRMkMCglKB18YucrPIIngq+DkUFQ7sj8rSQI5VwcQUCJQt3QcVc3D5GruRkMZNb7EB1wR1Vl9LQQoNV8wwejJ+QUpl9bh3ERoUl3srqkDxLMn+6uziZQclyz1wVuvdVefOoHXWw0bp0G8q97mZW4sefbOpACPqtwaim5+ZrKshjhTJCOQDZQ/s01XqEnB3TsLn4mzLck3omC2fsKKas+YFtPYmxgNJC3wM3EpHy6mlbhoxj4Ug3dD52tcXDi3GyGYHhhJJPdeCa3eAPNKOwn4yAWwB38hcN699xzsA0EZ7LlFP10sBzcqTu56Ed7VjppjyxmK02cMTSHIa7RFWVUHr5nR/JexArmcJFPj+4NSN9Fr1mqr6aQzjeIYzvPmBU7T2zo9bWUXJA5nbNRLAPgRnCp2J/A+rgKDYlGml7r10ApPyxvLEnNMd/bceqq3vm9ur2RCTfWNOZ1vNs6owJ1S17QRg4JqDGro9jmN1PaurfQgcq/UfhqFRLlic/9OE9Pa8nF6SdF739YackZvuL5V9FS/Najw0SlqA+sK0j01/3vy4KUrdNLImAiA8vnjPLg5e0UbPWvMVfMkM+YK9bJZki/1Wq+ZjfgBGwIW4tD8HxgGNeHObF0168JBFAnFCVBviAqGflje9C6tqMt5V9ZH5GuPTwLLYUdehW8hb70Et88ab7bZa2OoXTrXUAP0M+KSrNKmSJeube2T/CKTxC0ZrmMxcLLJqZ9UDgNVpppafMMf65xP4nH5z1vfWcROmNazy20dd8qfdTk/o37Tpn7WBgEFaoNIMGKa3nGFK8UqqhpuUNcgbkMJzQnmZ+vBj1+iGNV2trr/UMgPys6758tsJCuM7Hey7Y526ldxX9ruDvunAEcEjnXxz8VyLtkiRxlWY228eGVSrNMrteBw/IABaNxwLCLyeV3gdRrkzGC5c7vcpS4E9dP4fZb+4fJ24X9Qd4rHNkw9ZLkPfpPcrdxNYUKkfcv3e8wx1UnDn2jCvBnPzESe9Todo8S+sSS6LWhSTQiHuRTdF3q3dPEwDuSaS6CxfmzhQmZketPiZo/2wVicjO11pvigKf5Ion89tRiSJIgy4zjH6ixR6HLdLCN7ZEu27nFeBdrmIP2V4mIFApqGhTW5mer+VP23RbJVx9FykspqxEBQkp9X3ZOnfLJmuwj5Ccvg69xw0i23BvcblNlxd9ZInQQtmtr/dLBP92devpKH4bFHxFncieZoLXJwuC1NYGJ7hmFy3Rk3ukzOsBhNhNty8/+sHSLEvmSNMAngE7YQ+ukcYPlAhX8ZD95C6AIroMVBcGeqkeyfvEhHyrVQiZYuWe4wXpVjWXmN6HOHTgw7nh1m36VZpXCMFvHX7p4X3jjBiQ47F7OnYQB0m/badolx05Ea2nbDsBqBUAaX+g/iL73ir2Xsk8H+C+QXSp2Gw6qc12gE/VqD6FM+iCOKR1+E5yuF2xLtje/DzA927aRHREgFAWeJzBAFhtTsnX2sAO2cK4BxPBRSyehu6zI90Uv3SYnmv38ECOnLCP6SRu/Lavr5Hd5IthEthfij/GALB0UvZ1RKghbS9pBj1fuVrgDb0PUvmdViDGVlUR/PIqH2Tqse74HgwGvDCWMU2RLXKJtoWxrkK+ZZE+Q1+dV1W50PBiFh5d1wQQh03k+EvPu7eQTlmgurm+zkq0UOLaiYotZUEAkG2GKLq/V3eVhJq3daOAOUilI+z569Y7EY9hWshUlf71oBmtyttMK8pnk01DtccxqXFHlzAfS6iRM/J5rNixT9P75vvm1aK9yo3Ov1RS2+h1g2C8vCccy771XNGYH5EEzPRC+goE/+41hO1IKQF54XofNlBv4gzBa7b5To73Wl4B8nwwv9PKf78BF1oVJ+tGEykKKGFZTBOv8AGrMA+auxwHsOM9QH1B2RAY2nmFkNRuFzFClH1Ebvzawj6Fkqv+AuQQqPpYZg1tFq3LNl47gyfu/NkE4l62NNLmpr93mQWUP402U6MwkFO2v2Zk1psF1s3d9ZtpVUKsJImfwFCnCEtiUhQKAKH+gOYQwHPpzSEmBIYlBy7CVsbWuZWWbBXsVi/DgCUZVSaomfJCcxkbuwOTR5G6VTwiVFVA+JgrhaH6fDUu6lIwacNYkXXH6DmFQqg8yYINTi8gptYYBAUTO+GK7JqH5ZkhAUJFMxADejhZs/nMxJ4Jy6fgMe2JTH1n6dVqsYk5s/KfDQQ+r1e0rBENXbWQk+tXlgsF0+d/Wh7y3K+GeM/XoaYwtn4MdxAm3aHvIz3dwQNcw/o1dOyaslBgHvHHgtVPEYGrlhVdc69By5tf408Rmaa9BdMiB/rIT0nEWYO6et1B2OpPbr9vYadjFRjAHdkHTF3Kye3ERtbE43bu4I+x3c1Aicx2OO3wRJBAGtm0MI2kt7GL7vgVEtOHaOsdwhWAVyfMIdnkGg+t85PtNMk8lHdO2i7ZhoVrQyN/AVB+h6hWqma4MrEKKfbKe8xs0Pk/FD3LGJzRMMCN0oIRL4bX255mM5PD/JsQ4RBJwILI4rRB6hyxdVZTqhVfz5zc+1kZygcVZqJBdV1uUEeWmazu4JgFZm0hj7PuO964tRPwgjz1lULd2ZlFh4h8Tdu7JXz3WaEXzVXtuXT7g0O/ejy9vSl4jil//Q/9V6TGp2diYhcMJyR7p1mle7/bK3tt5bC58YNA091/B+omSdR7UwtijeA54ep+d1HIHRJb+Ivdne+IQ12cFgVu3RmBecJHUImv3RTYBTwyodQegmTwOrTTyebdlJL+yD9YiNNr/7qvp33bEjLZPcwY2e1+JJ8yfw2TIF1YIiiU471zjH2WYeTPozniY6bLCMnd/wVXux9Wc+BvVvaIaTfIlolwQ61ParUF7/h07eVGPk113v8piOD7HCIdBG7rcQrmVRy4agtFUOD8J1GesRogyjthwlTc0rfyGfOiCzNeaA1GcVdaXvD8mrejksOAUJfUvqQ7v53QGv4EbplldrPTVTLfqn3Bn9yQNyGESF0bszHRCnLSfIvLezXy9HYXNYip4bev/GvYk9+t8IONqU9WM0UvtPAr5k5ReypZa2gPiHegzR/nb3X8vijoiKpoIqkdPrJxK/JidQkKJxKvKNUqlKxUpvmSZT2YV+s0h3ULNJTKpe2+IscLWqP7WuCvE/713cjQkPk4d39NGn0jVY3Wc2/cihXj/zP6ijZn9OrO2e9pGQxVASIeZoQUuE+KZS71p+oINwhrFUPx/pt7YcKYB5zGgDHG2BhF7T1mh6SOmA3Wu/ok5zzT9fWXQozKybhSE10bLpqvRhGZYerwN5bM2nUiC4JFXCQNYsgXmRqEsS6b41ka9auRsvzXdQrn2mH2NFXmgO7mPrInNhXUERJ1OWbjlMY4mnQj/jQYGjBQq9uriJYXKlS1pT0Rbuk7xMYNadvOxxEzj9X/PfL/EIpXGpSa0rOACK5CkjurMG4ZIYfPBquIhXz6fiS1SjO3WO5X0+Ev5R5+DwWtNmB9ZAm7O2mcRZ9+R0Fe+K+9tawHNMp9eZMMmhiAQNMkP0MmEFeDSQZH8dDf3Aa4K+mI80Hj+TardVdxCAwgqEa5GHEQrNsEHEGnIpA9YzYhkYR6NSJeCha1tb3+pTaJhfK9543WXkA5mstFhwk6ixj1prESFK5ZqAV9AMA9Nki/6tg1SVkscogi92vdYUjUjGYLQiYFEEugRzdP4r6aPeMUzLhrsQr8Xocy4B88LqIVSVqbZeohFMtA3Zj/1npa0HJgnBLbTt6EiZO6hgoyIyY/2QajAD5dUaKycA4M5LWdOSGKDAgcSdl3tHqnDzp9q34wqarZr3jxRqo9Q/rpqCTW74TITbNFv+TFd/YeJqjBTyDDj9uQ+Z8LafYep3YjlOXGwv5agPFnGLwOoSY+itpuMGmfeflmIENxI4Us3/a63vZkCdddh+iIGpd5DOHOnf792rR8QJCUI3MDTbekfYlYUOocwUdq3yxLW+R/RE1yjMsr6vMGhxgOO0OI/pipPZMYijqiflcl21xJeyiksBp35AUUvdgjdN1KPdXyqzbmgL+duyKis2P4mNyCchAq7VPVcuFgCqJ+emvgvsgiz/nvQMml9pTB8PqByi9BVcd1ZNZgnIGr3miSaniBbtGrR/u38Z2w4vvnQbElJLCdNlEhO5QpE6/8adHVcIoSlVJjR/T1l/j0pfXdH12IhGTSQmmyp/kDqdgsK2Y27rL/IaCmnjXWD/Ff2F4Z3lrXZrBN3mojcE30OLmhP8DY6zzdJhl7Cj7xeoeNnIuFP/S+jp+mAXOaIvOe6BVnhLPFh2YnwW4LiV0MJSfOUrspF08pdsYQrHw1yQdbHZWJnZOCiqbjpvY4HKoK+nOMPPXI53BvY29En/byskldiT8+rzg7lHI9cwI/hUzUrtPAIYTX5pkiAvr7zawiAy/SxMEXX5vHehJK5dHsWi1P23xh/kCdaCSKPUyId0BSRXhA1vhTMf+SVrgnTWYg2RIi9hTiccZlE07z1WRppxFBpkclkyg2EoSWlbHqy1vD2GsVULlDWqvoiMCh7WEia5XuvfPiXESdTI3YP7VhCMFhe1/o9Zy0euX4X4AcUwzQfyEr9aDcIw3Tk2ujV6bG34+trxHaL54hG50X42aEtuHu/vazSZ5fUB2Hg7mAV8BdAiUPdzPY6G6g3PQ3CVvXX1qLsBkui5A3ise6e3R1bSfIdS61vcxlLiEc43pKCmDhDl/bSqvOR23uJXPCarry0k3rUKtXzW/t/A2sh7WaiBxDA+4Igb+61tI3Mnw2tG8O1CLOost5vN/0IGmkpmUkx4yBvuQ1Vh3kJjDOgMibpIXprPbauYJBZRQg2rplohGRE3qig68TG8uLKCLavJZoTfew6Xl6erAuYWLFDKrY/VJbKrBhyEOXb5GTKiyLM7LI4Fav6UG5Okx7bhV3PAG/BgN4tVLB0ZDlxbuD3hnJclCfVcAzy1IAxNfHDdMMtpqw0ArB9D6cFliHL4tzUPW6yJSEOxrBI7STDWyA5iy6qdPxoZhgmLUcd/TadQFddXVzAKObHegPHAx+vCkCJEOxxQHP55YT+1wXR326RWNsaaW8jbD0DgK2dRMcZ8BVWiivvtjH1rQDM5gtbm4C5yOzzJO98k2xBaPbxe9yo/Sn4c0m/A7s6TQU1rx09wWIgMG9IQIVWAG0Ar/7Zch6+k8m9Yv/Wn40AzsYOhcHE/PtzJWKcyFb74HAaQaLF70ZE/4SzH01g9GPyoHB0QzYHcMRSDdGTDOLEdks5jBtNLPuOqLKG9GKJxy1oyCY9brZ+8w0dONf4FHTC4q+PgPTmE2TS5IQi8mGF/QXPWjkcct9TiBhs/kjCQnsu+QvrfJmjuLsCmCznnitTC0RkH/VfrvAoedrU895NEO/G/l9luVinPTDlo4KuaF7KbjJ4zJ8KQUILd1gFk66UsSmNq9nqYYjCDerYyftjZTBBEAesVDf5ui+gkAPOt1EieJDttZAVlSpMlcZeJr8UHOCGKBGi7fXvCYW8QWnp+ddc37wzC+WJ/5/8OCNRh7av9myOrY85oZX/UhecB2o5QklYxUhPBpM2FdnERQ+EH8pD2VRBifVrNu0iStlDU+CCt1e0UlWBQ6r6nMywZfLLxABr4G/q7/r0YuNujtfF6pJoot0WNEqVmK7S23NykURoSvERYtYL4Z02ZqVet4f+ApGktH+LwDxZZ/OWf5FwYgawzm/iugJnZn8YovS75rlsGF8QoMDG1VyffEagvwyB1nCTIkSe3jBoEnxejxR96VOM3XXdULRlwqerojoEtyxmXjzuOF+glVwh45sIeGYWACxuNg+oSiWyHKWgrc39gW/7AGuNjHep7fi0VmUyl5nTiLyJBm+EcC2F9YDffQnL44lK1MVKamORgYOhvVnpO8jr0otcsUzr1QMXKFMtdg7JpwZbmXPDCNvIKbhIfEClwc0EXcKi8CCBVuTNFYJZEDllNthaJL5YhL9YsuRRO2AkuFYBASgtCqFsT5J384SvM/W5RoLphwx/9MtyulJYMxaxmwITMeXij+WMsvSZM2pGtMmRPb/geCr2X0Dp45zBquCTKsEccvixpRkVa/58oh5c5stUdycAu+9/5vBmrKyhUxvN6I9GZ9BJ3SUowHJgqbbuuyeWPCdvIbKk0tTOH+6xuOtksoH+zHSDqQ25h+vX/22sWWz0dWiQQTuqPxzcnX8tfqbN4IwSACATeWwQHWWJlZU/ZhlqscgfGpktQWS1C83lRsVQ7xQwd5WOHALgzXdFKbCDpKV1ufd1TIBqqwraYFALIpmhNBthGT0T1kgxhAbb3TgG2Gh8u3ZKyqm+7S3WQayc31JqFzlUxzOftT0K2gifqkQgO/LdrFu5U8mhYUULdpnaPrBakgfriaAitIRFP8DqsdNKHaIZgmsA5vXz5jhsphhPxHdZo3f26M4Q681ZO12F/6edy4zbjjT+wss6qiQrWDizzmalH7G69PvicCP5tAM1BkIoR3Plp7xY4F6jDDyed4Y5Hs2pQLOP/lFRUQu/sJzNwMssIxH01OsuRmnDAIHJMUUJEZE4rF1qfEXjOuVxUEw7qxqRn8AO5RyBxYBMAzR84PECQlzuPK2zsMnDt/uJcNpFwhBQ4ui44V11NHT/PETH7il85ir4ic93vyd17typlP/CW8PD7YJB0h48pCVFa9oK+CI3Yo0wxTGM4d/f3KetStNupUhnTUO//QbK9EIe/e8O2wWcYKdTxsvMhq6aAy1ZWeSb9C9I1B0SD4yi+I5MxDAjq36LWbhhKdzDWyrzpwZoz8xz6OSkFegw7vn7jfKgElYSHiN6whjEfqoP4el5JdTkbUDwDkGeFv2fDGO1P4t5ILWvWz20x7ygFCYQWG3zRAp46p2qwf2NBXdeXqwb6dqCCbp1si5aivrXrDCXMsHKGNBdp1TCVBgERKr/WZlNZxpYopqefTv3AfnwIj3nHv9Su5qk4tC52bzfx8W72Mq3tbixNQ6LBRCZTXSBroR4W2NzRw+aH9m35KBdIi899FfQTkU8gNYGxfIlTceodNX31QBoNOA8eqIV65hbhTSqRNSAV404BVT6B+1szEWljvRY1G+f2dDh4qdM2l8MLiB6oT09BIbgUzNXQbpRD9ajFeOeXnxGeWMU/bafqPZxX8zhzFFsev/hbFQtRh2KHH4s7XbJ0oqF5LW/aGk5hiHv0DxFeTkCymGyRmICK9wcz8SrXOhk0503TN/y4serm7rkTlSRgeALt3YD07RXkqN/X4LH6dKKFMQ2IikSn4JIapptycasIMw+QQF4cGtR+mbO9Aomr2f/NdjxZpvTFpAHqzyt20Q5R6VjOCvOCBZnuAuuMUUi/GPI242O87/QR6JXtZP3fIJaGVlSCjNp/9kYht0HfoR+47ydBDT2vt6OLloKWLd257ki9QlZ3cBMYslV4vH8ssBjNTCheqjhmmLUeLtHF8sgqZBckxCMO3InuvlC3XiwpjH+fWuY8WHUFcZDCECNL1w6VuR9Y0Ss6NHXIjhfASzpmNXwlP0LS/4vtnuaG/G9etJo+S5Q+kZguvuYKoxuJYLYmX1vN9ShChUicZ75tdU6sWW9Wfg/G6FiE0Id15RlnchPvB90cVNo9rASeGrk8CTpxMd+dwkpAIauWmpNo32Fm5mFrcSsVtnCmAOlE1bis+STSPSkD2mE9ozhrF+CFLnXYV6qqhx4vM8G8auttwrMnUyQkmV3GKZbMvncjrhCdlOpAf57GUYFsaT/G9Ya9KRQKQpSTkr6Ga99SEawUcCkxIyekoJfBCMMAfocoRBIQrYLDrKHbWcz+tk43gACmcf9OV8EDq/NKtYjqs6NbklQPg2gwEB9b4Hj+gfTO6FNJAoAjZaSLelWzYb/bgZ+b//nEdT2fQplgO9hvLpp2Rhi0yNySST4xuOVGrZQftPvOtm4uSZmp71pUHk2/YwOF/ziOxDdz019fa1heeVg96H6aDq5y353pbJqSy+zL39J5xfB71JT9Zf6ecfsrVohAa+xW+o8M7gF5zUTtFtOWsvtZfzY7LIeXoHC+l4k+Ty+4zew6aXUGXPdHL7i0Wn+U6jLiegx2CbEufztw0zh5QejSiwchUG62sh5cPH4OJ6U6u1Kb7zmpHiokIj/TyJ8zHFCNmc1ObNw46t/8beZ0QxMizzkv/YEz+lVpixA9tTi6aE+rzO8YUEp31D/Vzxpm8xQqJxslE1ouCkfWJqm47YWt2hGgfJbW/i4VoR+mh6geUJhpgZYGjV9jFFzcWtocpK4gtDB+T503aC6YfsDx+tt0j3/iwrlO0ey+tuAvepJS6KgtxOWXYDcc9dbhU8wZgGiY5IMV2midvlWoPf6i8ErTYKorjC+rE+GYPo3Kja00/VfYlT+te/aXYGZRoFVFl3zOiyEdpcX7xxna4xZ3q4FWetUGWhSQs/+HczviO6F6pThycK1MXJzxnqgpYnDJG2DTw6U/VMJhQzR84zYKS79pv5oe3b+K/6+YByVJldQ9VmWqS7ME4DBwM6Za3o5IEOlqcZvfNH0knr6ctnUqO/MwRRyNIvmM7wq0KKp+SEo8jcC0oH3gRu5yp3xrr2GBzk5VlRbj2moeh0VRxInlVgbCnOu/Iuiy0j/D8RZnaQAAjIZYORVStzH3812rNe88C0nCM7ohWhX/Vhro6J1/rNA1XPMMe1Ikhjo98JlLEZTf2YtKrT2ZjIwbz2yelHD8JDZZ44LPZoiypDfpErTVJVLSeJoEPBa+VLou3ik5528NXwVWiZmSiqyyULlyL8uo6sR5P54TNriiodzhmmkTLSwCqU9bP4J4XfO/BbV81GxAWRA9c0aGpdJSTkAXKUkw94JoU2sH0rE1FKDRfGk/BWmNOBJTJUrtPu/3tpFMcUastk1Qb/TERmccRS7jme9p5hg/RTycOSp0ZryKk4QjVuA0RKnWpl4JpFn6TtFo0yn0pCOO2tg4wrIhPjUaGEB/FpmcFJvbVvgEV7gPoQPv016yw10+gXTYgV4Km/QdPrdmXFb71rmXnKx/erfiQ41sokNSnid4T/xS/8yqDmtEbwJjX7kyBP56dNcniQbzywl8pmz67ohwFh3KyoKNq7lkOyR3ZbbhqZDhbvHVUj3vwaZeiwXGmMJJsy7Y3K52Tc/rO3PXUcOJZGooViUp2Ye1D8MMOzV6pdJL432r1FmEg1GOGVBM8T++vTHcs1jbIdCOBzyqwZR3U38slBSO4cmThoAQign4Gi2ogDJmdAHqyB09qVlLzFe2ulEM0dHhQ6MsEGztwX+tJy1hEzUXIZNnKIfL6utMo01ypYWmLiiaWSweSJGMhc4OVwE5Z8Om5h4TAXEXvrpVVFXnRvaPp49Xl3VBOyUA0FSP5OLJuJcM+vxoJbP6i5lzXBUZcJNcOtR0IHfnvZdBaYNN/s5F9OQUNfkT0v+jggxxMFRze31/VCHehFnl4Pkhdy8hutteiRNCBih6zuir0qVx6Ye4GDjiOKLEqqKNJjck+Qz3ZGf9tnRjSFJa/Mrq54Q5hO33mLc5XhiQNu80G+Pu6QjQjLteoRIeR+e4MzeYewdB0UGW78mQxcB6XH/muHqrIgMq+m3kxjAq8fRvFce0uuCExyQwbKqqaXqEFPhCgtHdKI3x7h0K/zq41fo23BMEefzq+bVDi8jqDA9midge6G6FGvxm7d9GAzcYdV0UW5IGPRUdzdHEPAqo1dHK2iYofzerjGdo6dXCAG/02s4FpgIUrnH5ylU6lcroZoX7g/JzBKFSSH+PvTUktG60WipJ2VWz7ztE6nXqzEDCAxGZrzkdkixa0cdOR5stXNmBU4RZ6RHsRuiJp5cw7h9pZ5J7AXOg1lQu0/xKlGV32v7IHMZpyuunN0873fJSarP/6n3TwmmwRm1RHUFgcqmw/K6PLN5XsuKEdDnvBC91EwvnyvALdDGAPxsoneCLVFGWv9+zrjCh/xZNh+GfC4IR32Iaw9R5KReT7mjMLbohzmqDCAW03MQPQKS6B3XjrBQJrTTn35jew4i7T7Gvr1UdlQZOj7MkFt6geTtZAoE8DHIoUFA+E495aY3IGkHvm9x6Ozczrx+SKOvXSJG+qt9euavhKjDXpAEKLnyH4a3lfzyFGFliX/CeEKGFfNJKSgPZPHhMEh96tlrGJMQFuDx2N0iZHKKB0lgkDBIsF8VhNbEYyeA2fXEiq7OGy/yYGobojFP4XgvtNs6II6dSHfQeOQ4EMxT418xcKySkrnu5K9wKCRfzDj0iXhAJy6Q4JHu42W+33IXlrUqfK0CT0QpQgLhaO4dwKDfxxOuNbG9Nept4tlJwpVBwVDM92UCb/iZUQAzOwd1+j0xbLXjkWW+4CuhFlNPNvOD25komvPconGEQAS74Eo+RveTwCp7R+iyvgYxoRnBqriEmvU4ZrS9HSp9NpNy+iTJx7o/kv8tgCDuqysIsDHpUGEYqoBTHHXWbXkjIqxjsLKxjNRU8YqetvgYytPvNSlsuXlKqMvduYOBfpRpIS5Qam9iu71ouaWWMyet2+QEyd6xZ07zX5VvtjoUIf81p3yOL8dBW++BfOa01v5QX4EaU9r2JNqpRhh5yfp6nRADrH6IH9pdKkNzhhxUoRZoMMfsblBH5BZJYdev+HlluAdMs+48ZiF2HDPaPWpMK7qaIyknJcAdXNDJmpRdswGzAUSVYY3ZbFq0p7k9Ukl14hLN8u4dEsSd/omtivIoVWlKSwSP1IkLvikoCMjDJR+Fl223dJ0gomeaFA1OWzEAgd2CdpIZgA2YV6TD/oysKMtAjAeq7jKO/ydhCqoe9/fAWRhqKSxceFnXgq1nCy8q47vdXhoYoWW4eUXNl9yU/pX5tgobIUbR4TEHCbFHvbEbNFhy7zc+rVi6YVQA9wSG7X/z7rT6wHZJRYRyki7AkgRL/nIr4xfbtcjfqWXYwdai6WtFVwVC7t/PZNve+PRoEPyQLv7BHhEvJRU5Ltnl4TOU7Hcw6UPM91g2CfDJsr0rqA5dnR9Cr1XBnvZY6Qg==;" vertex="1" parent="7">
                    <mxGeometry x="490" y="164" width="208" height="138.56" as="geometry"/>
                </mxCell>
                <mxCell id="19" value="&lt;h1&gt;&lt;font face=&quot;Times New Roman&quot; color=&quot;#0d0d0d&quot;&gt;&lt;span style=&quot;font-weight: 400;&quot;&gt;Super Stock Simulator&lt;/span&gt;&lt;/font&gt;&lt;/h1&gt;" style="text;html=1;strokeColor=none;fillColor=none;align=center;verticalAlign=middle;whiteSpace=wrap;rounded=0;" parent="1" vertex="1">
                    <mxGeometry x="220" y="80" width="440" height="120" as="geometry"/>
                </mxCell>
                <mxCell id="23" value="Stocks owned: ___" style="text;html=1;align=center;verticalAlign=middle;resizable=0;points=[];autosize=1;strokeColor=none;fillColor=none;" vertex="1" parent="1">
                    <mxGeometry x="83" y="266" width="120" height="30" as="geometry"/>
                </mxCell>
                <mxCell id="24" value="Stock Price:$ __&amp;nbsp;" style="text;html=1;align=center;verticalAlign=middle;resizable=0;points=[];autosize=1;strokeColor=none;fillColor=none;" vertex="1" parent="1">
                    <mxGeometry x="83" y="294" width="110" height="30" as="geometry"/>
                </mxCell>
                <mxCell id="25" value="Day: ___" style="text;html=1;align=center;verticalAlign=middle;resizable=0;points=[];autosize=1;strokeColor=none;fillColor=none;" vertex="1" parent="1">
                    <mxGeometry x="82" y="320" width="70" height="30" as="geometry"/>
                </mxCell>
                <mxCell id="33" value="CONTINUE" style="rounded=1;whiteSpace=wrap;html=1;fillColor=#ffff88;strokeColor=none;fontSize=9;" vertex="1" parent="1">
                    <mxGeometry x="94" y="442.38" width="70" height="30" as="geometry"/>
                </mxCell>
            </root>
        </mxGraphModel>
    </diagram>
</mxfile>